{"glyphs":{"0":{"ha":806,"x_min":68,"x_max":738,"o":"m 403 22 q 488 53 451 22 q 544 128 525 85 q 574 239 563 172 q 588 357 585 306 q 590 474 590 408 q 588 592 590 540 q 574 710 585 643 q 544 820 563 776 q 488 895 525 864 q 403 926 451 926 q 317 895 354 926 q 262 820 281 864 q 232 710 243 776 q 218 592 221 643 q 215 474 215 540 q 218 357 215 408 q 232 239 221 306 q 262 128 243 172 q 317 53 281 85 q 403 22 354 22 m 403 -22 q 227 51 306 -22 q 108 236 149 124 q 68 475 68 349 q 108 714 68 601 q 227 899 149 826 q 403 972 306 972 q 578 899 500 972 q 697 714 657 826 q 738 475 738 601 q 697 236 738 349 q 578 51 657 124 q 403 -22 500 -22 z "},"1":{"ha":806,"x_min":167,"x_max":639,"o":"m 167 0 l 167 44 l 300 44 q 339 81 339 44 l 339 763 l 167 763 l 167 813 l 243 813 q 365 853 318 813 q 422 950 411 893 l 467 950 l 467 81 q 506 44 467 44 l 639 44 l 639 0 l 167 0 z "},"2":{"ha":806,"x_min":103,"x_max":689,"o":"m 657 0 l 115 0 q 119 62 115 35 q 137 131 124 89 q 185 220 150 174 q 275 313 221 267 l 408 426 q 542 696 542 539 q 489 863 542 804 q 339 922 436 922 q 216 877 271 922 q 161 776 161 832 q 218 707 161 717 q 284 677 263 700 q 306 622 306 654 q 287 578 306 596 q 235 560 268 560 q 140 605 178 560 q 103 724 103 650 q 181 901 103 831 q 378 972 260 972 q 601 898 514 972 q 689 696 689 824 q 669 607 689 650 q 613 525 650 564 q 546 462 575 486 q 472 406 517 438 l 336 300 q 215 147 215 215 q 258 114 215 114 l 521 114 q 599 138 576 114 q 631 207 622 163 l 646 289 l 676 289 l 657 0 z "},"3":{"ha":806,"x_min":100,"x_max":694,"o":"m 376 972 q 580 905 503 972 q 657 728 657 838 q 601 585 657 643 q 479 513 546 528 l 479 501 q 624 422 554 489 q 694 257 694 356 q 597 54 694 131 q 356 -22 499 -22 q 172 26 244 -22 q 100 165 100 74 q 129 251 100 215 q 206 286 158 286 q 269 265 246 286 q 292 206 292 243 q 274 155 292 176 q 229 133 257 133 q 181 110 181 133 q 356 22 181 22 q 470 60 425 22 q 531 147 515 97 q 547 258 547 197 q 499 425 547 369 q 382 481 451 481 q 315 468 347 481 q 244 453 269 453 q 208 463 224 453 q 192 492 192 472 q 244 531 192 531 q 310 524 268 531 q 386 519 338 519 q 488 580 453 519 q 524 718 524 640 q 482 868 524 808 q 361 928 440 928 q 245 901 279 928 q 211 842 211 875 q 247 794 211 811 q 297 726 297 774 q 278 678 297 697 q 222 660 258 660 q 152 694 182 660 q 122 769 122 728 q 197 919 122 867 q 376 972 271 972 z "},"4":{"ha":806,"x_min":78,"x_max":731,"o":"m 431 742 l 142 317 l 431 317 l 431 742 m 258 0 l 258 44 l 393 44 q 431 81 431 44 l 431 267 l 78 267 l 78 317 l 508 951 l 558 951 l 558 317 l 726 317 l 726 267 l 558 267 l 558 81 q 596 44 558 44 l 731 44 l 731 0 l 258 0 z "},"5":{"ha":806,"x_min":119,"x_max":714,"o":"m 372 -22 q 188 36 257 -22 q 119 182 119 94 q 153 282 119 247 q 231 317 186 317 q 290 294 268 317 q 311 236 311 271 q 261 163 311 185 q 219 117 219 143 q 372 22 219 22 q 488 69 442 22 q 550 183 533 115 q 567 336 567 250 q 378 600 567 600 q 249 546 303 600 q 217 469 217 514 q 189 435 217 435 q 167 469 167 435 l 167 949 l 197 972 q 283 931 226 947 q 388 914 339 914 q 619 972 519 914 l 636 953 q 513 848 586 888 q 358 808 440 808 q 217 836 271 808 l 217 571 l 225 568 q 406 650 296 650 q 633 564 551 650 q 714 336 714 478 q 614 80 714 182 q 372 -22 514 -22 z "},"6":{"ha":806,"x_min":111,"x_max":697,"o":"m 414 22 q 510 67 472 22 q 562 167 549 111 q 575 286 575 222 q 542 471 575 397 q 431 544 508 544 q 308 473 357 544 q 258 286 258 401 q 294 97 258 171 q 414 22 331 22 m 414 -22 q 194 101 278 -22 q 111 436 111 225 q 140 660 111 550 q 225 842 169 769 q 463 972 326 972 q 622 906 561 972 q 661 796 661 860 q 626 717 661 747 q 569 696 603 696 q 519 721 538 696 q 508 761 508 735 q 526 803 508 782 q 553 826 539 817 q 575 865 575 843 q 547 909 575 890 q 460 928 518 928 q 289 801 347 928 q 253 672 265 750 q 240 542 240 594 l 240 479 l 250 475 q 327 562 275 528 q 428 596 379 596 q 585 550 521 596 q 668 445 639 511 q 697 304 697 379 q 620 81 697 183 q 414 -22 543 -22 z "},"7":{"ha":806,"x_min":125,"x_max":678,"o":"m 144 950 l 678 950 q 656 785 678 878 q 583 615 635 692 l 504 496 q 447 315 447 386 q 456 211 447 256 l 464 163 q 475 65 475 107 q 393 -22 475 -22 q 313 14 343 -22 q 283 111 283 50 q 301 208 283 154 q 333 292 318 263 q 386 388 349 322 q 429 463 424 453 l 540 622 q 611 800 611 724 q 568 836 611 836 l 281 836 q 202 812 225 836 q 171 743 179 788 l 156 661 l 125 661 l 144 950 z "},"8":{"ha":806,"x_min":83,"x_max":731,"o":"m 401 928 q 256 879 315 928 q 197 750 197 831 q 226 657 197 692 q 315 597 254 622 l 494 529 q 606 725 606 589 q 546 869 606 811 q 401 928 486 928 m 390 -22 q 173 50 263 -22 q 83 242 83 122 q 140 400 83 343 q 261 475 197 457 l 261 481 l 246 488 q 133 578 172 518 q 94 717 94 638 q 189 899 94 826 q 401 972 283 972 q 618 901 542 972 q 694 733 694 829 q 647 603 694 658 q 535 519 599 549 l 535 514 l 567 501 q 731 292 731 435 q 640 68 731 158 q 390 -22 550 -22 m 406 22 q 533 58 482 22 q 603 135 585 93 q 622 217 622 176 q 588 332 622 294 q 489 396 554 369 l 301 464 q 181 239 181 414 q 248 75 181 128 q 406 22 315 22 z "},"9":{"ha":806,"x_min":108,"x_max":694,"o":"m 392 928 q 295 883 333 928 q 244 783 257 839 q 231 664 231 728 q 264 479 231 553 q 375 406 297 406 q 498 477 449 406 q 547 664 547 549 q 511 853 547 779 q 392 928 475 928 m 343 -22 q 183 44 244 -22 q 144 154 144 90 q 179 233 144 203 q 236 254 203 254 q 286 229 268 254 q 297 189 297 215 q 279 147 297 168 q 253 124 267 133 q 231 85 231 107 q 259 41 231 60 q 346 22 288 22 q 517 149 458 22 q 553 278 540 200 q 565 408 565 356 l 565 471 l 556 475 q 478 388 531 422 q 378 354 426 354 q 221 400 285 354 q 138 505 167 439 q 108 646 108 571 q 185 869 108 767 q 392 972 263 972 q 611 849 528 972 q 694 514 694 725 q 665 290 694 400 q 581 108 636 181 q 343 -22 479 -22 z "}," ":{"ha":389,"x_min":0,"x_max":0,"o":""},"!":{"ha":389,"x_min":108,"x_max":281,"o":"m 211 217 l 178 217 l 156 494 q 130 672 151 549 q 108 864 108 796 q 132 937 108 910 q 194 964 156 964 q 257 937 233 964 q 281 864 281 910 q 259 672 281 796 q 233 494 238 549 l 211 217 m 194 -17 q 133 8 157 -17 q 108 69 108 32 q 133 131 108 107 q 194 156 157 156 q 256 131 232 156 q 281 69 281 107 q 256 8 281 32 q 194 -17 232 -17 z "},"\"":{"ha":547,"x_min":119,"x_max":428,"o":"m 167 1014 q 214 950 214 1014 q 211 925 214 944 l 183 722 l 150 722 l 122 925 q 119 950 119 944 q 167 1014 119 1014 m 381 1014 q 428 950 428 1014 q 425 925 428 944 l 397 722 l 364 722 l 336 925 q 333 950 333 944 q 381 1014 333 1014 z "},"#":{"ha":950,"x_min":113,"x_max":847,"o":"m 389 950 l 450 950 l 408 681 l 611 681 l 653 950 l 714 950 l 672 681 l 847 681 l 847 625 l 665 625 l 618 328 l 843 328 l 843 272 l 607 272 l 565 0 l 504 0 l 546 272 l 344 272 l 301 0 l 240 0 l 283 272 l 113 272 l 113 328 l 290 328 l 340 625 l 113 625 l 113 681 l 349 681 l 389 950 m 401 625 l 351 328 l 557 328 l 604 625 l 401 625 z "},"$":{"ha":806,"x_min":86,"x_max":697,"o":"m 406 -22 q 361 -21 375 -22 l 361 -117 l 317 -117 l 317 -15 q 147 67 208 4 q 86 229 86 131 q 119 311 86 278 q 181 336 144 336 q 222 319 203 336 q 239 275 239 303 q 229 234 239 251 q 189 183 219 217 q 172 138 172 167 q 210 72 172 101 q 317 29 247 42 l 317 463 l 308 465 q 119 719 119 540 q 170 874 119 807 q 317 963 221 940 l 317 1053 l 361 1053 l 361 969 q 406 972 389 972 q 439 971 428 972 l 439 1053 l 483 1053 l 483 965 q 641 885 585 947 q 697 744 697 822 q 678 650 697 682 q 613 614 656 614 q 567 633 586 614 q 554 668 554 649 q 571 719 554 694 q 594 744 579 731 q 613 764 608 757 q 624 807 624 781 q 588 873 624 839 q 483 921 553 907 l 483 526 l 511 515 q 647 412 599 481 q 694 260 694 343 q 640 84 694 160 q 483 -14 585 8 l 483 -117 l 439 -117 l 439 -21 q 406 -22 428 -22 m 361 444 l 361 24 q 406 22 375 22 q 439 24 428 22 l 439 414 l 361 444 m 361 575 l 439 544 l 439 926 q 406 928 428 928 q 361 925 389 928 l 361 575 m 186 750 q 212 657 186 690 q 308 596 238 624 l 317 593 l 317 917 q 218 851 250 897 q 186 750 186 804 m 633 215 q 604 323 633 288 q 511 385 575 358 l 483 396 l 483 32 q 594 103 556 51 q 633 215 633 156 z "},"%":{"ha":1194,"x_min":133,"x_max":1061,"o":"m 867 975 l 917 975 l 325 -25 l 275 -25 l 867 975 m 872 6 q 938 39 914 6 q 967 115 961 72 q 972 225 972 158 q 967 335 972 292 q 938 413 961 379 q 872 447 914 447 q 819 430 840 447 q 790 378 799 413 q 778 309 781 343 q 775 225 775 275 q 778 142 775 175 q 790 74 781 108 q 819 23 799 40 q 872 6 840 6 m 872 -22 q 739 48 792 -22 q 686 225 686 118 q 739 403 686 332 q 872 475 792 475 q 1007 403 953 475 q 1061 225 1061 332 q 1007 48 1061 118 q 872 -22 953 -22 m 319 503 q 385 536 361 503 q 414 613 408 569 q 419 722 419 656 q 414 833 419 789 q 385 910 408 876 q 319 944 361 944 q 267 927 288 944 q 237 875 246 910 q 225 806 228 840 q 222 722 222 772 q 225 639 222 672 q 237 572 228 606 q 267 520 246 538 q 319 503 288 503 m 319 475 q 186 545 239 475 q 133 722 133 615 q 186 901 133 829 q 319 972 239 972 q 454 901 400 972 q 508 722 508 829 q 454 545 508 615 q 319 475 400 475 z "},"&":{"ha":1092,"x_min":75,"x_max":1017,"o":"m 75 201 q 272 481 75 329 l 314 513 l 300 533 q 228 736 228 643 q 292 908 228 840 q 442 976 356 976 q 563 926 522 976 q 604 806 604 875 q 559 669 604 728 q 432 546 514 611 l 671 207 l 676 214 q 757 343 725 274 q 789 453 789 413 q 773 493 789 478 q 735 508 757 508 l 672 508 l 672 553 l 1017 553 l 1017 508 l 974 508 q 933 505 949 508 q 895 483 918 501 q 854 429 872 465 q 699 168 769 258 q 781 68 747 100 q 849 36 815 36 q 931 65 900 36 q 983 142 961 94 l 1006 131 q 817 -25 935 -25 q 619 88 719 -25 q 346 -25 492 -25 q 147 32 219 -25 q 75 201 75 89 m 208 213 q 257 67 208 118 q 363 17 306 17 q 590 121 479 17 l 565 153 l 342 474 l 328 463 q 208 213 208 367 m 317 778 q 390 604 317 700 l 404 586 q 471 640 446 618 q 525 712 496 663 q 554 814 554 761 q 522 899 554 863 q 443 935 490 935 q 351 891 386 935 q 317 778 317 847 z "},"'":{"ha":333,"x_min":119,"x_max":214,"o":"m 167 1014 q 214 950 214 1014 q 211 925 214 944 l 183 722 l 150 722 l 122 925 q 119 950 119 944 q 167 1014 119 1014 z "},"(":{"ha":514,"x_min":136,"x_max":450,"o":"m 136 369 q 210 733 136 565 q 408 1014 285 900 l 450 981 q 206 369 206 724 q 450 -242 206 15 l 408 -275 q 210 6 285 -161 q 136 369 136 174 z "},")":{"ha":514,"x_min":67,"x_max":381,"o":"m 381 369 q 306 6 381 174 q 108 -275 232 -161 l 67 -242 q 311 369 311 15 q 67 981 311 724 l 108 1014 q 306 733 232 900 q 381 369 381 565 z "},"*":{"ha":697,"x_min":100,"x_max":608,"o":"m 354 972 q 393 956 379 972 q 407 913 407 939 q 390 853 407 893 q 371 746 371 804 q 382 725 371 725 q 401 733 389 725 q 479 801 450 764 q 557 856 519 856 q 594 840 581 856 q 608 804 608 824 q 515 739 608 751 q 413 703 464 732 l 406 697 q 399 688 399 693 q 406 678 399 682 l 413 672 q 515 636 464 643 q 608 571 608 624 q 594 535 608 551 q 557 519 581 519 q 479 574 519 519 q 401 642 450 611 q 382 650 389 650 q 371 629 371 650 q 390 522 371 571 q 407 463 407 482 q 393 419 407 436 q 354 403 379 403 q 315 419 329 403 q 301 463 301 436 q 318 522 301 482 q 338 629 338 571 q 326 650 338 650 q 307 642 319 650 q 229 574 258 611 q 151 519 189 519 q 114 535 128 519 q 100 571 100 551 q 193 636 100 624 q 296 672 244 643 l 303 678 q 310 688 310 682 q 303 697 310 693 l 296 703 q 193 739 244 732 q 100 804 100 751 q 114 840 100 824 q 151 856 128 856 q 229 801 189 856 q 307 733 258 764 q 326 725 319 725 q 338 746 338 725 q 318 853 338 804 q 301 913 301 893 q 315 956 301 939 q 354 972 329 972 z "},"+":{"ha":1306,"x_min":67,"x_max":1239,"o":"m 67 339 l 67 394 l 622 394 l 622 950 l 683 950 l 683 394 l 1239 394 l 1239 339 l 683 339 l 683 -217 l 622 -217 l 622 339 l 67 339 z "},",":{"ha":389,"x_min":100,"x_max":292,"o":"m 100 114 q 125 173 100 151 q 181 194 150 194 q 265 150 235 194 q 292 51 292 114 q 249 -112 292 -35 q 144 -233 206 -189 l 125 -211 q 209 -117 176 -172 q 242 -6 242 -61 q 217 36 242 22 q 169 42 208 42 q 119 63 139 42 q 100 114 100 85 z "},"-":{"ha":514,"x_min":83,"x_max":431,"o":"m 83 389 l 431 389 l 431 311 l 83 311 l 83 389 z "},".":{"ha":389,"x_min":108,"x_max":281,"o":"m 194 -17 q 133 8 157 -17 q 108 69 108 32 q 133 131 108 107 q 194 156 157 156 q 256 131 232 156 q 281 69 281 107 q 256 8 281 32 q 194 -17 232 -17 z "},"/":{"ha":625,"x_min":78,"x_max":547,"o":"m 133 -275 l 78 -275 l 492 1014 l 547 1014 l 133 -275 z "},":":{"ha":389,"x_min":108,"x_max":281,"o":"m 194 -17 q 133 8 157 -17 q 108 69 108 32 q 133 131 108 107 q 194 156 157 156 q 256 131 232 156 q 281 69 281 107 q 256 8 281 32 q 194 -17 232 -17 m 194 478 q 133 502 157 478 q 108 564 108 526 q 133 626 108 601 q 194 650 157 650 q 256 626 232 650 q 281 564 281 601 q 256 502 281 526 q 194 478 232 478 z "},"<":{"ha":1306,"x_min":117,"x_max":1194,"o":"m 1167 -217 l 117 347 l 117 386 l 1167 950 l 1194 900 l 203 367 l 1194 -167 l 1167 -217 z "},"=":{"ha":1306,"x_min":67,"x_max":1239,"o":"m 67 469 l 67 525 l 1239 525 l 1239 469 l 67 469 m 67 206 l 67 261 l 1239 261 l 1239 206 l 67 206 z "},">":{"ha":1306,"x_min":111,"x_max":1189,"o":"m 139 950 l 1189 386 l 1189 347 l 139 -217 l 111 -167 l 1103 367 l 111 900 l 139 950 z "},"?":{"ha":653,"x_min":89,"x_max":594,"o":"m 322 964 q 515 908 436 964 q 594 753 594 851 q 578 671 594 710 q 526 597 561 632 q 465 542 492 563 q 390 488 439 521 q 267 322 267 403 q 344 256 267 256 q 404 281 381 256 q 428 347 428 306 q 421 383 428 369 l 446 394 q 461 346 461 369 q 424 252 461 290 q 344 214 388 214 q 255 243 290 214 q 219 326 219 272 q 235 397 219 368 q 286 464 251 426 l 392 578 q 452 661 432 622 q 472 753 472 700 q 432 874 472 826 q 313 922 392 922 q 199 889 249 922 q 150 814 150 856 q 158 774 150 782 q 172 768 165 768 q 186 769 182 768 q 211 772 196 772 q 248 756 235 772 q 261 717 261 740 q 242 669 261 688 q 185 650 222 650 q 117 683 146 650 q 89 771 89 715 q 162 908 89 853 q 322 964 235 964 m 344 -17 q 283 8 307 -17 q 258 69 258 32 q 283 131 258 107 q 344 156 307 156 q 406 131 382 156 q 431 69 431 107 q 406 8 431 32 q 344 -17 382 -17 z "},"@":{"ha":1139,"x_min":67,"x_max":1064,"o":"m 442 182 q 333 226 379 182 q 286 354 286 271 q 310 528 286 442 q 379 668 333 614 q 624 804 493 804 q 688 778 660 804 q 722 728 717 751 l 729 728 l 744 788 l 844 788 l 728 357 q 727 252 713 289 q 769 215 742 215 q 882 248 835 215 q 953 335 929 281 q 987 442 976 389 q 997 551 997 496 q 881 863 997 750 q 571 975 765 975 q 261 828 389 975 q 133 465 133 682 q 253 135 133 256 q 583 14 372 14 q 828 94 706 14 l 850 63 q 569 -25 729 -25 q 201 117 336 -25 q 67 493 67 260 q 217 861 67 708 q 583 1014 368 1014 q 937 875 810 1014 q 1064 524 1064 736 q 1044 412 1064 469 q 988 301 1025 354 q 888 215 951 249 q 747 182 825 182 q 658 210 694 182 q 615 286 621 238 l 608 288 q 540 217 585 251 q 442 182 496 182 m 447 215 q 574 289 518 215 q 658 465 631 363 l 690 583 q 686 706 706 642 q 624 771 667 771 q 524 733 568 771 q 439 604 481 694 q 397 467 414 550 q 381 310 381 385 q 401 241 381 267 q 447 215 422 215 z "},"A":{"ha":1061,"x_min":64,"x_max":1031,"o":"m 369 342 l 654 342 l 510 763 l 369 342 m 64 0 l 64 44 l 115 44 q 232 146 196 44 l 533 989 l 568 989 l 869 106 q 953 44 894 44 l 1031 44 l 1031 0 l 600 0 l 600 44 l 692 44 q 726 55 713 44 q 740 79 740 65 q 735 110 740 97 l 672 292 l 351 292 l 319 201 q 300 118 300 146 q 316 67 300 89 q 371 44 332 44 l 444 44 l 444 0 l 64 0 z "},"B":{"ha":958,"x_min":86,"x_max":881,"o":"m 351 494 l 351 82 q 389 44 351 44 l 539 44 q 733 269 733 44 q 539 494 733 494 l 351 494 m 86 0 l 86 44 l 186 44 q 224 82 224 44 l 224 907 q 186 944 224 944 l 86 944 l 86 989 l 539 989 q 758 922 667 989 q 850 753 850 854 q 786 597 850 658 q 638 518 722 536 l 638 513 q 804 438 728 506 q 881 269 881 371 q 786 72 881 143 q 554 0 692 0 l 86 0 m 351 539 l 533 539 q 687 597 646 539 q 728 753 728 654 q 675 890 728 836 q 544 944 622 944 l 389 944 q 351 907 351 944 l 351 539 z "},"C":{"ha":931,"x_min":97,"x_max":842,"o":"m 97 503 q 143 758 97 643 q 278 944 189 874 q 486 1014 367 1014 q 658 950 571 1014 q 694 924 681 936 q 733 904 717 904 q 749 910 744 904 q 761 935 754 917 l 785 1003 l 819 1003 l 819 617 l 785 617 q 656 878 739 786 q 486 969 574 969 q 385 947 428 969 q 315 888 342 925 q 272 789 289 850 q 250 660 256 728 q 244 503 244 593 q 251 343 244 413 q 276 210 258 274 q 324 107 294 147 q 399 43 353 67 q 508 19 446 19 q 632 49 578 19 q 719 128 686 78 q 769 236 751 178 q 792 360 788 294 l 842 360 q 835 297 840 329 q 819 227 831 265 q 792 154 808 189 q 749 86 775 119 q 690 28 722 53 q 610 -10 657 4 q 508 -25 564 -25 q 331 21 411 -25 q 201 142 251 67 q 124 310 151 217 q 97 503 97 403 z "},"D":{"ha":1083,"x_min":86,"x_max":1014,"o":"m 86 0 l 86 44 l 186 44 q 224 82 224 44 l 224 907 q 186 944 224 944 l 86 944 l 86 989 l 594 989 q 892 852 771 989 q 1014 503 1014 715 q 892 144 1014 289 q 594 0 769 0 l 86 0 m 867 503 q 842 716 867 621 q 752 878 817 811 q 589 944 688 944 l 389 944 q 351 907 351 944 l 351 82 q 389 44 351 44 l 589 44 q 719 85 663 44 q 806 192 775 125 q 852 338 838 260 q 867 503 867 415 z "},"E":{"ha":958,"x_min":86,"x_max":878,"o":"m 86 0 l 86 44 l 186 44 q 224 82 224 44 l 224 907 q 186 944 224 944 l 86 944 l 86 989 l 861 989 l 867 675 l 832 675 l 831 703 q 814 779 828 732 q 775 864 800 826 q 613 944 722 944 l 389 944 q 351 907 351 944 l 351 528 l 474 528 q 536 545 511 528 q 571 594 561 563 q 584 654 581 626 q 588 719 588 682 l 624 719 l 624 285 l 588 285 q 585 351 588 324 q 572 410 582 378 q 536 460 561 443 q 474 478 511 478 l 351 478 l 351 82 q 389 44 351 44 l 611 44 q 692 62 649 44 q 764 115 736 79 q 812 218 792 154 q 838 328 832 282 l 843 372 l 878 372 l 861 0 l 86 0 z "},"F":{"ha":939,"x_min":86,"x_max":867,"o":"m 94 0 l 94 44 l 186 44 q 224 82 224 44 l 224 907 q 186 944 224 944 l 86 944 l 86 989 l 861 989 l 867 675 l 832 675 l 831 703 q 814 779 828 732 q 775 864 800 826 q 613 944 722 944 l 389 944 q 351 907 351 944 l 351 528 l 474 528 q 536 545 511 528 q 571 594 561 563 q 584 654 581 626 q 588 719 588 682 l 624 719 l 624 285 l 588 285 q 585 351 588 324 q 572 410 582 378 q 536 460 561 443 q 474 478 511 478 l 351 478 l 351 82 q 389 44 351 44 l 511 44 l 511 0 l 94 0 z "},"G":{"ha":1000,"x_min":97,"x_max":958,"o":"m 486 1014 q 658 950 571 1014 q 694 924 681 935 q 733 904 715 904 q 749 910 744 904 q 761 935 754 917 l 785 1003 l 819 1003 l 819 617 l 785 617 q 656 878 739 786 q 486 969 574 969 q 364 936 413 969 q 290 837 315 903 q 254 690 264 771 q 244 494 244 608 q 254 300 244 381 q 290 153 264 219 q 364 53 315 86 q 486 19 413 19 q 628 98 564 19 q 692 263 692 176 l 692 410 q 654 447 692 447 l 554 447 l 554 492 l 958 492 l 958 447 l 857 447 q 819 410 819 447 l 819 -18 l 775 -18 l 775 108 q 751 156 775 156 q 703 114 728 156 q 613 19 671 63 q 486 -25 554 -25 q 279 46 368 -25 q 144 233 190 117 q 97 494 97 349 q 142 752 97 635 q 278 942 188 869 q 486 1014 368 1014 z "},"H":{"ha":1094,"x_min":86,"x_max":1036,"o":"m 86 0 l 86 44 l 186 44 q 224 82 224 44 l 224 907 q 186 944 224 944 l 86 944 l 86 989 l 489 989 l 489 944 l 389 944 q 351 907 351 944 l 351 544 l 771 544 l 771 907 q 733 944 771 944 l 633 944 l 633 989 l 1036 989 l 1036 944 l 936 944 q 899 907 899 944 l 899 82 q 936 44 899 44 l 1036 44 l 1036 0 l 633 0 l 633 44 l 733 44 q 771 82 771 44 l 771 494 l 351 494 l 351 82 q 389 44 351 44 l 489 44 l 489 0 l 86 0 z "},"I":{"ha":547,"x_min":86,"x_max":489,"o":"m 86 0 l 86 44 l 186 44 q 224 82 224 44 l 224 907 q 186 944 224 944 l 86 944 l 86 989 l 489 989 l 489 944 l 389 944 q 351 907 351 944 l 351 82 q 389 44 351 44 l 489 44 l 489 0 l 86 0 z "},"J":{"ha":750,"x_min":61,"x_max":706,"o":"m 706 989 l 706 944 l 606 944 q 568 907 568 944 l 568 269 q 489 54 568 133 q 297 -25 410 -25 q 128 29 194 -25 q 61 176 61 83 q 93 269 61 236 q 168 303 125 303 q 231 281 208 303 q 253 224 253 258 q 233 176 253 196 q 186 156 214 156 q 154 146 164 156 q 144 114 144 136 q 189 45 144 71 q 297 19 233 19 q 403 72 365 19 q 440 199 440 125 l 440 907 q 403 944 440 944 l 303 944 l 303 989 l 706 989 z "},"K":{"ha":1050,"x_min":86,"x_max":992,"o":"m 86 0 l 86 44 l 186 44 q 224 82 224 44 l 224 907 q 186 944 224 944 l 86 944 l 86 989 l 482 989 l 482 944 l 389 944 q 351 907 351 944 l 351 476 l 672 804 q 687 824 681 815 q 697 840 693 832 q 703 860 701 849 q 706 886 706 871 q 688 928 706 911 q 643 944 669 944 l 606 944 l 606 989 l 972 989 l 972 944 l 917 944 q 792 863 871 944 l 558 626 l 842 106 q 882 58 860 71 q 946 44 904 44 l 992 44 l 992 0 l 572 0 l 572 44 l 665 44 q 692 53 681 44 q 703 74 703 63 q 693 108 703 94 l 467 533 l 351 417 l 351 82 q 389 44 351 44 l 482 44 l 482 0 l 86 0 z "},"L":{"ha":931,"x_min":86,"x_max":850,"o":"m 86 0 l 86 44 l 186 44 q 224 82 224 44 l 224 907 q 186 944 224 944 l 86 944 l 86 989 l 511 989 l 511 944 l 389 944 q 351 907 351 944 l 351 82 q 389 44 351 44 l 583 44 q 664 63 619 44 q 736 117 708 81 q 784 219 764 156 q 810 328 804 283 l 815 374 l 850 374 l 832 0 l 86 0 z "},"M":{"ha":1164,"x_min":86,"x_max":1106,"o":"m 86 0 l 86 44 l 136 44 q 199 74 175 44 q 224 156 224 104 l 224 907 q 186 944 224 944 l 86 944 l 86 989 l 381 989 l 607 224 l 818 989 l 1106 989 l 1106 944 l 1006 944 q 968 907 968 944 l 968 82 q 1006 44 968 44 l 1106 44 l 1106 0 l 703 0 l 703 44 l 803 44 q 840 82 840 44 l 840 901 l 586 -17 l 553 -17 l 288 864 l 279 864 l 279 156 q 303 74 279 104 q 367 44 328 44 l 417 44 l 417 0 l 86 0 z "},"N":{"ha":1069,"x_min":86,"x_max":1025,"o":"m 86 0 l 86 44 l 136 44 q 200 74 176 44 q 224 156 224 104 l 224 907 q 186 944 222 944 l 86 944 l 86 989 l 349 989 l 831 214 l 831 833 q 807 915 831 885 q 744 944 783 944 l 694 944 l 694 989 l 1025 989 l 1025 944 l 975 944 q 911 915 936 944 q 886 833 886 885 l 886 -25 l 831 -25 l 285 838 l 279 838 l 279 156 q 303 74 279 104 q 367 44 328 44 l 417 44 l 417 0 l 86 0 z "},"O":{"ha":972,"x_min":97,"x_max":903,"o":"m 500 -25 q 290 51 383 -25 q 147 244 196 126 q 97 494 97 363 q 147 744 97 626 q 290 938 196 863 q 500 1014 383 1014 q 710 938 617 1014 q 853 744 804 863 q 903 494 903 626 q 853 244 903 363 q 710 51 804 126 q 500 -25 617 -25 m 500 19 q 756 494 756 19 q 500 969 756 969 q 244 494 244 969 q 500 19 244 19 z "},"P":{"ha":944,"x_min":86,"x_max":883,"o":"m 86 0 l 86 44 l 186 44 q 224 82 224 44 l 224 907 q 186 944 224 944 l 86 944 l 86 989 l 550 989 q 790 917 697 989 q 883 731 883 846 q 790 541 883 615 q 550 467 697 467 l 351 467 l 351 82 q 389 44 351 44 l 511 44 l 511 0 l 86 0 m 351 511 l 568 511 q 690 576 643 511 q 736 731 736 640 q 690 883 736 821 q 568 944 644 944 l 389 944 q 351 907 351 944 l 351 511 z "},"Q":{"ha":972,"x_min":97,"x_max":903,"o":"m 500 -25 q 290 51 383 -25 q 147 244 196 126 q 97 494 97 363 q 147 744 97 626 q 290 938 196 863 q 500 1014 383 1014 q 712 938 617 1014 q 855 742 807 863 q 903 494 903 621 q 841 218 903 346 q 671 24 779 90 l 682 -51 q 714 -118 689 -99 q 775 -139 740 -139 q 876 69 876 -139 l 903 69 q 732 -233 903 -233 q 622 -187 665 -233 q 578 -67 578 -140 l 578 -14 q 500 -25 538 -25 m 500 19 q 578 33 544 19 l 578 72 q 556 160 578 126 q 492 193 535 193 q 435 164 458 193 q 413 100 413 135 q 428 38 413 57 q 500 19 444 19 m 493 238 q 657 88 617 238 q 756 494 756 199 q 500 969 756 969 q 244 494 244 969 q 365 65 244 171 q 361 104 361 81 q 400 197 361 157 q 493 238 439 238 z "},"R":{"ha":994,"x_min":86,"x_max":950,"o":"m 351 556 l 486 556 q 701 767 701 556 q 656 898 701 851 q 533 944 611 944 l 389 944 q 351 907 351 944 l 351 556 m 86 0 l 86 44 l 186 44 q 224 82 224 44 l 224 907 q 186 944 224 944 l 86 944 l 86 989 l 542 989 q 768 931 688 989 q 849 767 849 874 q 772 601 849 664 q 586 528 694 539 l 586 522 q 716 449 665 507 q 783 253 767 392 q 810 106 797 139 q 856 72 822 72 q 915 222 915 72 l 950 222 q 806 -17 950 -17 q 679 49 714 -17 q 639 294 642 121 q 606 449 638 388 q 503 511 574 511 l 351 511 l 351 82 q 389 44 351 44 l 513 44 l 513 0 l 86 0 z "},"S":{"ha":861,"x_min":122,"x_max":789,"o":"m 122 425 l 156 425 q 269 144 169 268 q 488 19 369 19 q 653 75 601 19 q 706 208 706 131 q 666 315 706 276 q 550 385 626 354 l 339 469 q 125 753 125 554 q 203 950 125 886 q 397 1014 281 1014 q 506 988 453 1014 q 600 931 558 963 q 653 906 633 906 q 681 939 676 906 l 686 989 l 719 989 l 733 628 l 700 628 q 578 874 667 778 q 386 969 489 969 q 258 919 308 969 q 208 778 208 868 q 240 681 208 715 q 335 621 272 646 l 603 514 q 742 407 696 476 q 789 261 789 338 q 713 60 789 146 q 488 -25 636 -25 q 380 -1 436 -25 q 308 33 324 22 q 258 69 293 44 q 217 97 224 93 q 204 101 210 101 q 183 87 193 101 q 169 42 172 72 l 164 -14 l 132 -14 l 122 425 z "},"T":{"ha":992,"x_min":100,"x_max":919,"o":"m 100 617 l 111 989 l 908 989 l 919 617 l 885 617 q 882 665 885 632 q 861 766 879 699 q 813 872 843 833 q 675 944 756 944 l 611 944 q 574 907 574 944 l 574 82 q 611 44 574 44 l 744 44 l 744 0 l 275 0 l 275 44 l 408 44 q 446 82 446 44 l 446 907 q 408 944 446 944 l 344 944 q 207 872 261 944 q 158 766 176 833 q 138 665 140 699 q 135 617 135 632 l 100 617 z "},"U":{"ha":1117,"x_min":86,"x_max":1058,"o":"m 589 -25 q 421 5 493 -25 q 307 85 349 35 q 244 198 265 136 q 224 329 224 260 l 224 907 q 186 944 224 944 l 86 944 l 86 989 l 490 989 l 490 944 l 389 944 q 351 907 351 944 l 351 292 q 414 91 351 163 q 589 19 476 19 q 792 94 719 19 q 865 275 865 168 l 865 832 q 840 914 865 883 q 776 944 815 944 l 728 944 l 728 989 l 1058 989 l 1058 944 l 1010 944 q 946 914 971 944 q 921 832 921 883 l 921 289 q 831 65 921 154 q 589 -25 742 -25 z "},"V":{"ha":1072,"x_min":61,"x_max":1039,"o":"m 554 -25 l 231 883 q 199 931 218 918 q 149 944 179 944 l 61 944 l 61 989 l 506 989 l 506 944 l 414 944 q 381 934 394 944 q 367 910 367 924 q 372 879 367 894 l 610 211 l 793 775 q 810 872 810 826 q 792 923 810 901 q 739 944 775 944 l 664 944 l 664 989 l 1039 989 l 1039 944 l 988 944 q 871 843 904 944 l 589 -25 l 554 -25 z "},"W":{"ha":1483,"x_min":53,"x_max":1450,"o":"m 485 -25 l 221 883 q 139 944 199 944 l 53 944 l 53 989 l 464 989 l 464 944 l 397 944 q 364 934 378 944 q 350 910 350 924 q 356 879 350 899 l 540 240 l 708 849 l 694 893 q 596 944 676 944 l 556 944 l 556 989 l 967 989 l 967 944 l 913 944 q 842 872 842 944 q 850 829 842 853 l 1025 228 l 1199 775 q 1214 875 1214 835 q 1189 924 1214 903 q 1122 944 1164 944 l 1075 944 l 1075 989 l 1450 989 l 1450 944 l 1390 944 q 1278 843 1310 944 l 1001 -25 l 967 -25 l 739 747 l 519 -25 l 485 -25 z "},"X":{"ha":1042,"x_min":64,"x_max":1006,"o":"m 64 0 l 64 44 l 107 44 q 174 58 147 44 q 214 92 201 72 q 244 138 226 113 l 479 489 l 272 872 q 230 928 251 911 q 163 944 208 944 l 78 944 l 78 989 l 508 989 l 508 944 l 425 944 q 400 924 400 944 q 411 888 400 906 l 561 610 l 693 807 q 721 886 721 849 q 702 927 721 910 q 653 944 683 944 l 610 944 l 610 989 l 985 989 l 985 944 l 922 944 q 800 876 844 944 l 588 557 l 833 106 q 919 44 868 44 l 1006 44 l 1006 0 l 575 0 l 575 44 l 658 44 q 696 74 696 44 q 686 108 696 89 l 508 436 l 349 193 q 314 106 314 140 q 326 63 314 81 q 364 44 339 44 l 439 44 l 439 0 l 64 0 z "},"Y":{"ha":1011,"x_min":58,"x_max":975,"o":"m 311 0 l 311 44 l 444 44 q 482 82 482 44 l 482 442 l 213 883 q 175 932 192 919 q 131 944 158 944 l 58 944 l 58 989 l 489 989 l 489 944 l 411 944 q 376 935 390 944 q 363 910 363 925 q 369 879 363 889 l 583 508 l 725 781 q 740 819 732 790 q 749 865 749 849 q 730 922 749 899 q 672 944 711 944 l 631 944 l 631 989 l 975 989 l 975 944 l 935 944 q 875 926 901 944 q 838 891 849 907 q 808 843 826 875 l 610 465 l 610 82 q 647 44 610 44 l 781 44 l 781 0 l 311 0 z "},"Z":{"ha":906,"x_min":94,"x_max":842,"o":"m 94 0 l 94 44 l 669 944 l 408 944 q 257 864 326 944 q 184 730 211 810 q 157 633 157 650 l 122 633 l 172 989 l 817 989 l 817 944 l 247 44 l 554 44 q 697 122 631 44 q 759 230 732 163 q 797 344 786 297 l 807 392 l 842 392 l 808 0 l 94 0 z "},"[":{"ha":528,"x_min":167,"x_max":431,"o":"m 167 -258 l 167 997 l 425 1014 l 431 978 l 297 956 q 267 911 267 950 l 267 -172 q 297 -217 267 -211 l 431 -239 l 425 -275 l 167 -258 z "},"\\":{"ha":625,"x_min":78,"x_max":547,"o":"m 547 -275 l 492 -275 l 78 1014 l 133 1014 l 547 -275 z "},"]":{"ha":528,"x_min":97,"x_max":361,"o":"m 361 -258 l 103 -275 l 97 -239 l 231 -217 q 261 -172 261 -211 l 261 911 q 231 956 261 950 l 97 978 l 103 1014 l 361 997 l 361 -258 z "},"^":{"ha":806,"x_min":86,"x_max":719,"o":"m 86 467 l 406 972 l 719 467 l 653 467 l 406 864 l 153 467 l 86 467 z "},"_":{"ha":722,"x_min":0,"x_max":722,"o":"m 0 -219 l 0 -164 l 722 -164 l 722 -219 l 0 -219 z "},"`":{"ha":611,"x_min":106,"x_max":340,"o":"m 144 950 q 213 906 181 950 l 340 721 l 322 706 l 144 846 q 106 907 106 875 q 144 950 106 950 z "},"a":{"ha":694,"x_min":64,"x_max":661,"o":"m 181 143 q 267 33 181 33 q 327 49 300 33 q 374 97 354 65 q 405 151 394 128 q 428 208 415 174 l 428 340 l 307 314 q 210 259 240 300 q 181 143 181 218 m 64 147 q 81 224 64 190 q 119 278 97 258 q 178 313 140 297 q 238 333 215 328 q 300 346 261 339 l 428 369 l 428 488 q 299 617 428 617 q 213 592 251 617 q 174 538 174 568 q 178 517 174 524 q 199 503 183 506 q 250 449 250 489 q 189 394 250 394 q 133 418 158 394 q 108 486 108 442 q 168 606 108 563 q 303 650 228 650 q 461 602 394 650 q 528 453 528 554 l 528 111 q 571 42 528 42 q 636 181 636 42 l 661 181 q 550 -17 661 -17 q 428 117 432 -17 l 421 119 q 353 27 400 71 q 244 -17 307 -17 q 117 19 171 -17 q 64 147 64 56 z "},"b":{"ha":711,"x_min":31,"x_max":644,"o":"m 403 17 q 496 95 469 17 q 522 317 522 174 q 496 538 522 460 q 403 617 469 617 q 285 538 338 617 q 233 364 233 460 l 233 235 q 280 83 233 150 q 403 17 326 17 m 133 0 l 133 925 q 103 956 133 956 l 31 956 l 31 989 l 233 989 l 233 544 l 242 542 q 315 619 269 588 q 406 650 360 650 q 580 554 515 650 q 644 317 644 458 q 577 79 644 175 q 400 -17 510 -17 q 203 117 279 -17 l 197 114 l 158 0 l 133 0 z "},"c":{"ha":606,"x_min":67,"x_max":558,"o":"m 339 -17 q 142 80 218 -17 q 67 317 67 176 q 143 553 67 457 q 339 650 219 650 q 490 594 433 650 q 547 468 547 538 q 525 401 547 425 q 471 376 503 376 q 424 394 443 376 q 406 438 406 413 q 453 501 406 486 q 475 526 475 508 q 440 585 475 554 q 339 617 406 617 q 220 542 251 617 q 189 317 189 467 q 219 92 189 167 q 339 17 250 17 q 469 76 424 17 q 525 217 515 136 l 558 217 q 496 55 553 126 q 339 -17 439 -17 z "},"d":{"ha":725,"x_min":67,"x_max":681,"o":"m 308 17 q 431 83 385 17 q 478 235 478 150 l 478 364 q 426 538 478 460 q 308 617 374 617 q 215 538 242 617 q 189 317 189 460 q 215 95 189 174 q 308 17 242 17 m 478 0 l 478 58 l 471 63 q 311 -17 403 -17 q 134 79 201 -17 q 67 317 67 175 q 131 554 67 458 q 306 650 196 650 q 397 619 351 650 q 469 542 442 588 l 478 544 l 478 925 q 447 956 478 956 l 347 956 l 347 989 l 578 989 l 578 64 q 608 33 578 33 l 681 33 l 681 0 l 478 0 z "},"e":{"ha":639,"x_min":67,"x_max":572,"o":"m 189 350 l 453 350 q 446 444 453 400 q 425 529 439 489 q 385 593 411 569 q 322 617 358 617 q 260 593 286 617 q 218 529 233 569 q 196 444 203 489 q 189 350 189 399 m 67 317 q 99 478 67 403 q 191 601 131 553 q 328 650 251 650 q 419 629 378 650 q 489 574 461 608 q 536 494 517 539 q 564 404 556 450 q 572 311 572 358 l 189 311 q 196 192 189 243 q 219 101 203 142 q 268 38 236 60 q 347 17 300 17 q 401 25 375 17 q 453 54 426 33 q 499 117 481 75 q 525 217 518 158 l 558 217 q 496 49 550 114 q 344 -17 442 -17 q 143 76 219 -17 q 67 317 67 169 z "},"f":{"ha":458,"x_min":39,"x_max":497,"o":"m 39 0 l 39 33 l 111 33 q 142 64 142 33 l 142 594 l 39 594 l 39 633 l 142 633 l 142 729 q 206 933 142 865 q 354 1000 269 1000 q 456 963 414 1000 q 497 858 497 926 q 480 801 497 822 q 432 781 463 781 q 391 797 407 781 q 375 839 375 813 q 400 889 375 872 q 422 922 422 901 q 351 967 422 967 q 242 768 242 967 l 242 633 l 372 633 l 372 594 l 242 594 l 242 64 q 272 33 242 33 l 372 33 l 372 0 l 39 0 z "},"g":{"ha":750,"x_min":72,"x_max":733,"o":"m 72 -169 q 113 -79 72 -118 q 208 -32 153 -40 l 208 -28 q 86 75 86 -1 q 130 165 86 132 q 238 208 174 197 l 238 213 q 97 422 97 272 q 170 589 97 528 q 344 650 243 650 q 459 624 403 650 q 529 578 515 597 q 569 632 542 614 q 625 650 597 650 q 703 622 672 650 q 733 550 733 594 q 717 496 733 517 q 675 475 701 475 q 636 487 653 475 q 619 525 619 499 q 643 569 619 556 q 658 594 658 579 q 621 617 658 617 q 576 597 596 617 q 553 550 556 576 q 592 422 592 496 q 520 256 592 318 q 344 194 449 194 q 203 173 265 194 q 142 101 142 151 q 231 56 142 56 q 278 57 260 56 q 321 58 294 58 l 464 58 q 613 10 553 58 q 672 -131 672 -37 q 590 -279 672 -228 q 372 -331 507 -331 q 161 -292 250 -331 q 72 -169 72 -253 m 208 422 q 244 279 208 331 q 344 228 281 228 q 444 279 408 228 q 481 422 481 331 q 444 565 481 514 q 344 617 408 617 q 244 565 281 617 q 208 422 208 514 m 133 -167 q 207 -265 133 -232 q 372 -297 281 -297 q 487 -285 435 -297 q 581 -237 539 -274 q 622 -142 622 -200 q 597 -67 622 -99 q 507 -36 571 -36 l 353 -36 q 251 -47 297 -36 q 169 -87 206 -57 q 133 -167 133 -118 z "},"h":{"ha":756,"x_min":39,"x_max":711,"o":"m 39 0 l 39 33 l 117 33 q 147 64 147 33 l 147 925 q 117 956 147 956 l 39 956 l 39 989 l 247 989 l 247 506 l 253 504 q 340 612 289 574 q 446 650 390 650 q 558 614 515 650 q 622 443 622 563 l 622 64 q 653 33 622 33 l 711 33 l 711 0 l 433 0 l 433 33 l 492 33 q 522 64 522 33 l 522 471 q 433 617 522 617 q 309 537 371 617 q 247 353 247 457 l 247 64 q 278 33 247 33 l 336 33 l 336 0 l 39 0 z "},"i":{"ha":375,"x_min":53,"x_max":331,"o":"m 183 806 q 132 826 153 806 q 111 878 111 847 q 132 929 111 908 q 183 950 153 950 q 235 929 214 950 q 256 878 256 908 q 235 826 256 847 q 183 806 214 806 m 53 0 l 53 33 l 111 33 q 142 64 142 33 l 142 569 q 111 600 142 600 l 53 600 l 53 633 l 242 633 l 242 64 q 272 33 242 33 l 331 33 l 331 0 l 53 0 z "},"j":{"ha":444,"x_min":-53,"x_max":317,"o":"m 72 600 l 72 633 l 303 633 l 303 -60 q 239 -263 303 -196 q 90 -331 175 -331 q -11 -294 31 -331 q -53 -189 -53 -257 q -35 -132 -53 -153 q 13 -111 -18 -111 q 53 -127 38 -111 q 69 -169 69 -143 q 44 -219 69 -203 q 22 -253 22 -232 q 93 -297 22 -297 q 203 -99 203 -297 l 203 569 q 172 600 203 600 l 72 600 m 244 806 q 193 826 214 806 q 172 878 172 847 q 193 929 172 908 q 244 950 214 950 q 296 929 275 950 q 317 878 317 908 q 296 826 317 847 q 244 806 275 806 z "},"k":{"ha":722,"x_min":39,"x_max":681,"o":"m 39 0 l 39 33 l 111 33 q 142 64 142 33 l 142 925 q 111 956 142 956 l 39 956 l 39 989 l 242 989 l 242 282 l 431 514 q 456 564 456 544 q 408 600 456 600 l 372 600 l 372 633 l 656 633 l 656 600 l 611 600 q 544 581 574 600 q 478 515 515 561 l 372 386 l 589 78 q 605 54 599 64 q 622 39 611 44 q 653 33 633 33 l 681 33 l 681 0 l 386 0 l 386 33 l 422 33 q 460 61 460 33 q 440 111 460 82 l 306 306 l 242 228 l 242 64 q 272 33 242 33 l 317 33 l 317 0 l 39 0 z "},"l":{"ha":375,"x_min":39,"x_max":344,"o":"m 39 0 l 39 33 l 111 33 q 142 64 142 33 l 142 925 q 111 956 142 956 l 39 956 l 39 989 l 242 989 l 242 64 q 272 33 242 33 l 344 33 l 344 0 l 39 0 z "},"m":{"ha":1103,"x_min":53,"x_max":1058,"o":"m 53 0 l 53 33 l 111 33 q 142 64 142 33 l 142 569 q 111 600 142 600 l 53 600 l 53 633 l 242 633 l 242 511 l 247 510 q 426 650 322 650 q 542 614 499 650 q 600 497 583 581 l 606 496 q 625 533 613 513 q 660 583 638 554 q 717 631 683 613 q 790 650 751 650 q 906 614 863 650 q 969 443 969 563 l 969 64 q 1000 33 969 33 l 1058 33 l 1058 0 l 781 0 l 781 33 l 839 33 q 869 64 869 33 l 869 471 q 848 574 869 531 q 778 617 826 617 q 661 538 717 617 q 606 353 606 458 l 606 64 q 636 33 606 33 l 694 33 l 694 0 l 417 0 l 417 33 l 475 33 q 506 64 506 33 l 506 471 q 484 574 506 531 q 414 617 463 617 q 297 538 353 617 q 242 353 242 458 l 242 64 q 272 33 242 33 l 331 33 l 331 0 l 53 0 z "},"n":{"ha":750,"x_min":53,"x_max":706,"o":"m 53 0 l 53 33 l 111 33 q 142 64 142 33 l 142 569 q 111 600 142 600 l 53 600 l 53 633 l 242 633 l 242 506 l 247 504 q 334 612 283 574 q 440 650 385 650 q 553 614 510 650 q 617 443 617 563 l 617 64 q 647 33 617 33 l 706 33 l 706 0 l 428 0 l 428 33 l 486 33 q 517 64 517 33 l 517 471 q 428 617 517 617 q 303 537 365 617 q 242 353 242 457 l 242 64 q 272 33 242 33 l 331 33 l 331 0 l 53 0 z "},"o":{"ha":689,"x_min":67,"x_max":622,"o":"m 344 17 q 500 317 500 17 q 344 617 500 617 q 189 317 189 617 q 344 17 189 17 m 344 -17 q 147 81 228 -17 q 67 317 67 179 q 147 552 67 454 q 344 650 228 650 q 542 552 461 650 q 622 317 622 454 q 542 81 622 179 q 344 -17 461 -17 z "},"p":{"ha":719,"x_min":39,"x_max":653,"o":"m 411 17 q 504 95 478 17 q 531 317 531 174 q 504 538 531 460 q 411 617 478 617 q 294 538 346 617 q 242 364 242 460 l 242 235 q 288 83 242 150 q 411 17 335 17 m 39 -319 l 39 -286 l 111 -286 q 142 -256 142 -286 l 142 569 q 111 600 142 600 l 39 600 l 39 633 l 242 633 l 242 544 l 250 542 q 323 619 278 588 q 414 650 368 650 q 588 554 524 650 q 653 317 653 458 q 585 79 653 175 q 408 -17 518 -17 q 249 63 317 -17 l 242 58 l 242 -256 q 272 -286 242 -286 l 344 -286 l 344 -319 l 39 -319 z "},"q":{"ha":697,"x_min":67,"x_max":681,"o":"m 375 -319 l 375 -286 l 447 -286 q 478 -256 478 -286 l 478 58 l 471 63 q 311 -17 403 -17 q 134 79 201 -17 q 67 317 67 175 q 134 554 67 458 q 311 650 201 650 q 426 606 378 650 q 500 503 475 561 l 510 506 l 553 633 l 578 633 l 578 -256 q 608 -286 578 -286 l 681 -286 l 681 -319 l 375 -319 m 308 17 q 431 83 385 17 q 478 235 478 150 l 478 386 q 427 542 478 468 q 308 617 376 617 q 215 538 242 617 q 189 317 189 458 q 215 96 189 175 q 308 17 242 17 z "},"r":{"ha":569,"x_min":53,"x_max":542,"o":"m 53 0 l 53 33 l 111 33 q 142 64 142 33 l 142 569 q 111 600 142 600 l 53 600 l 53 633 l 242 633 l 242 458 l 247 457 q 305 570 271 524 q 367 631 339 617 q 436 650 401 650 q 515 616 489 650 q 542 536 542 582 q 522 472 542 503 q 464 442 503 442 q 419 455 438 442 q 401 494 401 468 q 439 556 401 535 q 469 593 469 572 q 431 617 469 617 q 383 604 407 617 q 330 551 358 592 q 278 442 301 510 q 242 247 242 339 l 242 64 q 272 33 242 33 l 331 33 l 331 0 l 53 0 z "},"s":{"ha":603,"x_min":72,"x_max":544,"o":"m 72 479 q 125 607 72 564 q 258 650 178 650 q 393 606 332 650 q 439 583 424 583 q 461 608 458 583 l 464 636 l 489 636 l 489 425 l 464 425 l 444 474 q 363 583 414 549 q 257 617 313 617 q 172 591 206 617 q 139 519 139 565 q 156 467 139 488 q 203 433 174 447 q 261 404 253 407 l 411 342 q 511 275 478 314 q 544 164 544 233 q 492 27 544 71 q 353 -17 439 -17 q 261 2 300 -17 q 200 40 222 21 q 163 58 178 58 q 114 11 124 58 l 108 -17 l 83 -17 l 83 258 l 108 258 l 156 158 q 231 62 179 107 q 354 17 283 17 q 449 48 418 17 q 481 133 481 79 q 392 232 481 196 l 233 296 q 72 479 72 361 z "},"t":{"ha":486,"x_min":39,"x_max":439,"o":"m 286 -17 q 183 28 224 -17 q 142 149 142 72 l 142 594 l 39 594 l 39 633 l 69 633 q 167 701 132 633 q 203 850 203 768 l 203 900 l 242 900 l 242 633 l 414 633 l 414 594 l 242 594 l 242 142 q 315 44 242 44 q 414 211 414 44 l 439 211 q 438 158 439 179 q 428 101 436 138 q 406 42 421 64 q 360 1 390 19 q 286 -17 329 -17 z "},"u":{"ha":742,"x_min":44,"x_max":697,"o":"m 310 -17 q 197 19 240 -17 q 133 190 133 71 l 133 569 q 103 600 133 600 l 44 600 l 44 633 l 233 633 l 233 163 q 322 17 233 17 q 447 97 385 17 q 508 281 508 176 l 508 569 q 478 600 508 600 l 419 600 l 419 633 l 608 633 l 608 64 q 639 33 608 33 l 697 33 l 697 0 l 508 0 l 508 128 l 503 129 q 416 22 467 60 q 310 -17 365 -17 z "},"v":{"ha":736,"x_min":25,"x_max":703,"o":"m 367 -17 l 138 531 q 126 558 131 549 q 112 578 121 567 q 92 595 103 590 q 65 600 81 600 l 25 600 l 25 633 l 325 633 l 325 600 l 286 600 q 256 591 269 600 q 242 567 242 582 q 250 521 242 543 l 406 146 l 518 475 q 533 546 533 518 q 519 585 533 569 q 483 600 506 600 l 450 600 l 450 633 l 703 633 l 703 600 l 671 600 q 615 580 640 600 q 575 518 589 560 l 392 -17 l 367 -17 z "},"w":{"ha":1078,"x_min":25,"x_max":1044,"o":"m 367 -17 l 143 518 q 133 542 138 531 q 123 563 128 554 q 113 579 118 572 q 99 591 107 586 q 81 598 92 596 q 57 600 71 600 l 25 600 l 25 633 l 325 633 l 325 600 l 286 600 q 256 591 269 600 q 242 567 242 582 q 250 521 242 543 l 406 146 l 504 475 q 510 504 510 489 q 494 550 510 511 q 435 600 471 600 l 403 600 l 403 633 l 703 633 l 703 600 l 647 600 q 618 592 628 600 q 608 577 608 583 q 607 558 607 571 q 614 521 607 539 l 747 146 l 860 475 q 875 546 875 518 q 825 600 875 600 l 792 600 l 792 633 l 1044 633 l 1044 600 l 1013 600 q 917 518 944 600 l 728 -17 l 703 -17 l 536 439 l 392 -17 l 367 -17 z "},"x":{"ha":722,"x_min":47,"x_max":669,"o":"m 47 0 l 47 33 l 83 33 q 118 41 103 33 q 145 60 133 49 q 164 80 157 71 q 185 110 171 89 l 311 299 l 142 569 q 131 586 135 579 q 119 597 128 593 q 94 600 110 600 l 53 600 l 53 633 l 328 633 l 328 600 l 294 600 q 267 572 267 600 q 275 543 267 557 l 371 388 l 463 524 q 475 568 475 542 q 465 592 475 583 q 442 600 454 600 l 408 600 l 408 633 l 650 633 l 650 600 l 615 600 q 519 539 560 600 l 393 353 l 569 69 q 583 49 578 56 q 603 38 589 43 q 638 33 617 33 l 669 33 l 669 0 l 381 0 l 381 33 l 422 33 q 454 57 454 33 q 444 86 454 69 l 333 264 l 239 124 q 218 75 218 90 q 253 33 218 33 l 278 33 l 278 0 l 47 0 z "},"y":{"ha":736,"x_min":25,"x_max":703,"o":"m 186 -331 q 97 -296 132 -331 q 58 -208 58 -260 q 81 -150 58 -169 q 128 -129 101 -129 q 176 -149 160 -129 q 192 -200 192 -169 q 181 -239 192 -217 q 172 -265 172 -253 q 200 -286 172 -286 q 270 -253 242 -286 q 313 -176 299 -221 l 350 -56 l 153 518 q 134 563 142 549 q 110 589 126 578 q 71 600 94 600 l 25 600 l 25 633 l 339 633 l 339 600 l 294 600 q 264 591 278 600 q 250 567 250 582 q 258 521 250 543 l 403 94 l 518 475 q 533 546 533 518 q 519 585 533 569 q 483 600 506 600 l 450 600 l 450 633 l 703 633 l 703 600 l 671 600 q 575 518 603 600 l 351 -193 q 293 -287 336 -244 q 186 -331 250 -331 z "},"z":{"ha":611,"x_min":56,"x_max":539,"o":"m 56 0 l 56 36 l 417 600 l 247 600 q 125 531 160 600 q 94 439 104 489 l 83 389 l 56 389 l 64 633 l 531 633 l 531 589 l 171 33 l 347 33 q 469 103 435 33 q 500 194 490 144 l 511 244 l 539 244 l 531 0 l 56 0 z "},"{":{"ha":583,"x_min":144,"x_max":467,"o":"m 144 383 q 257 403 222 383 q 292 492 292 422 q 267 632 292 535 q 242 781 242 729 q 450 1014 242 946 l 467 981 q 412 959 432 968 q 369 935 392 950 q 335 899 346 919 q 325 850 325 878 q 350 707 325 800 q 375 564 375 614 q 244 372 375 414 l 244 369 q 375 169 375 328 q 350 31 375 119 q 325 -108 325 -58 q 360 -187 325 -161 q 467 -239 396 -214 l 450 -272 q 242 -39 242 -204 q 267 106 242 13 q 292 242 292 199 q 256 335 292 311 q 144 358 219 358 l 144 383 z "},"|":{"ha":394,"x_min":167,"x_max":228,"o":"m 167 1014 l 228 1014 l 228 -275 l 167 -275 l 167 1014 z "},"}":{"ha":583,"x_min":117,"x_max":439,"o":"m 439 358 q 326 339 361 358 q 292 250 292 319 q 317 110 292 207 q 342 -39 342 13 q 133 -272 342 -204 l 117 -239 q 172 -217 151 -226 q 215 -193 192 -208 q 248 -157 238 -178 q 258 -108 258 -136 q 233 35 258 -58 q 208 178 208 128 q 339 369 208 328 l 339 372 q 208 564 208 414 q 233 707 208 614 q 258 850 258 800 q 223 929 258 903 q 117 981 188 956 l 133 1014 q 342 781 342 946 q 317 632 342 729 q 292 492 292 535 q 326 403 292 422 q 439 383 361 383 l 439 358 z "},"~":{"ha":917,"x_min":67,"x_max":850,"o":"m 169 403 q 131 385 147 403 q 114 339 114 368 q 172 256 114 286 l 156 226 q 67 351 67 267 q 108 448 67 407 q 225 489 150 489 q 514 400 313 489 q 747 322 686 322 q 786 340 769 322 q 803 386 803 357 q 744 469 803 439 l 761 499 q 850 374 850 458 q 808 277 850 318 q 692 236 767 236 q 595 251 650 236 q 505 281 540 267 q 403 325 469 296 q 351 347 376 336 q 301 369 326 358 q 253 387 275 379 q 208 399 231 394 q 169 403 186 403 z "}," ":{"ha":389,"x_min":0,"x_max":0,"o":""},"¡":{"ha":389,"x_min":108,"x_max":281,"o":"m 178 417 l 211 417 l 233 139 q 259 -39 238 85 q 281 -231 281 -162 q 257 -303 281 -276 q 194 -331 233 -331 q 132 -303 156 -331 q 108 -231 108 -276 q 130 -39 108 -162 q 156 139 151 85 l 178 417 m 194 650 q 256 626 232 650 q 281 564 281 601 q 256 502 281 526 q 194 478 232 478 q 133 502 157 478 q 108 564 108 526 q 133 626 108 601 q 194 650 157 650 z "},"¢":{"ha":806,"x_min":156,"x_max":647,"o":"m 156 317 q 226 542 156 447 q 403 649 296 638 l 403 800 l 447 800 l 447 649 q 585 588 533 643 q 636 468 636 533 q 614 401 636 425 q 560 376 592 376 q 513 394 532 376 q 494 438 494 413 q 542 501 494 486 q 564 526 564 508 q 534 582 564 553 q 447 615 504 611 l 447 17 q 565 79 525 21 q 614 217 604 138 l 647 217 q 624 112 643 161 q 558 24 604 63 q 447 -17 513 -14 l 447 -167 l 403 -167 l 403 -15 q 221 90 286 -3 q 156 317 156 183 m 278 317 q 306 126 278 211 q 403 21 335 40 l 403 614 q 308 510 338 597 q 278 317 278 422 z "},"£":{"ha":1000,"x_min":89,"x_max":886,"o":"m 225 -17 q 128 10 168 -17 q 89 92 89 38 q 130 172 89 140 q 217 203 171 203 q 371 163 288 203 q 383 300 383 217 q 374 490 383 358 q 283 503 301 503 q 237 499 254 503 q 208 489 219 496 q 178 472 196 482 l 158 503 q 272 542 203 542 q 371 528 299 542 q 369 597 369 547 q 459 863 369 754 q 672 972 549 972 q 792 938 744 972 q 856 868 840 904 q 871 801 871 832 q 850 726 871 754 q 788 697 829 697 q 738 715 758 697 q 718 763 718 733 q 753 825 718 807 q 778 842 771 835 q 785 865 785 849 q 758 914 785 892 q 672 936 731 936 q 550 876 604 936 q 496 697 496 815 l 496 506 q 581 494 554 494 q 619 497 603 494 q 646 504 635 500 q 667 514 657 508 l 686 525 l 706 494 q 592 456 667 456 q 496 468 568 456 l 496 378 q 429 132 496 228 q 693 67 538 67 q 801 119 756 67 q 861 233 847 171 l 886 224 q 638 -25 838 -25 q 388 79 554 -25 q 312 14 357 44 q 225 -17 267 -17 m 225 17 q 293 43 258 17 q 349 110 328 69 q 324 126 336 118 q 299 142 313 135 q 272 156 285 150 q 242 166 258 163 q 208 169 225 169 q 151 147 174 169 q 128 92 128 124 q 225 17 128 17 z "},"¤":{"ha":806,"x_min":72,"x_max":733,"o":"m 403 225 q 582 296 511 225 q 653 475 653 367 q 582 656 653 583 q 403 728 511 728 q 224 656 294 728 q 153 475 153 583 q 224 296 153 367 q 403 225 294 225 m 403 169 q 208 239 293 169 l 115 146 l 72 189 l 165 282 q 97 475 97 365 q 167 669 97 585 l 72 764 l 115 807 l 208 714 q 403 783 293 783 q 597 714 513 783 l 690 807 l 733 764 l 639 669 q 708 475 708 585 q 640 282 708 365 l 733 189 l 690 146 l 597 239 q 403 169 513 169 z "},"¥":{"ha":806,"x_min":19,"x_max":783,"o":"m 189 0 l 189 44 l 292 44 q 331 83 331 44 l 331 286 l 136 286 l 136 331 l 331 331 l 331 414 l 136 414 l 136 458 l 322 458 l 129 851 q 103 892 115 879 q 68 906 90 906 l 19 906 l 19 950 l 336 950 l 336 906 l 290 906 q 253 882 253 906 q 265 844 253 869 l 432 506 l 583 781 q 611 857 611 831 q 601 890 611 875 q 564 906 590 906 l 506 906 l 506 950 l 783 950 l 783 906 l 744 906 q 694 888 707 906 q 643 801 681 869 l 453 458 l 647 458 l 647 414 l 453 414 l 453 331 l 647 331 l 647 286 l 453 286 l 453 83 q 492 44 453 44 l 594 44 l 594 0 l 189 0 z "},"¦":{"ha":394,"x_min":167,"x_max":228,"o":"m 167 -233 l 167 267 l 228 267 l 228 -233 l 167 -233 m 167 514 l 167 1014 l 228 1014 l 228 514 l 167 514 z "},"§":{"ha":889,"x_min":139,"x_max":653,"o":"m 414 972 q 528 931 478 972 q 578 833 578 890 q 557 776 578 797 q 506 756 536 756 q 456 774 476 756 q 436 817 436 792 q 441 842 436 831 q 452 858 446 853 q 472 872 458 863 q 486 897 486 882 q 414 939 486 939 q 326 910 364 939 q 289 831 289 882 q 303 756 289 789 q 333 704 317 722 q 383 656 349 686 l 561 503 q 633 419 613 460 q 653 314 653 379 q 500 111 653 208 q 581 -72 581 25 q 519 -208 581 -158 q 375 -258 458 -258 q 262 -217 313 -258 q 211 -117 211 -175 q 232 -61 211 -81 q 286 -42 253 -42 q 333 -59 313 -42 q 353 -100 353 -76 q 319 -157 353 -136 q 303 -183 303 -167 q 324 -214 303 -203 q 375 -225 344 -225 q 463 -196 425 -225 q 500 -117 500 -167 q 478 -23 500 -62 q 408 58 457 17 l 231 208 q 161 294 183 251 q 139 397 139 336 q 292 603 139 506 q 208 781 208 678 q 270 919 208 867 q 414 972 332 972 m 475 131 q 560 192 519 156 q 600 258 600 229 q 539 389 600 340 l 344 556 l 317 583 q 192 453 192 506 q 250 325 192 376 l 444 161 l 475 131 z "},"¨":{"ha":611,"x_min":103,"x_max":508,"o":"m 436 900 q 488 879 467 900 q 508 828 508 858 q 488 776 508 797 q 436 756 467 756 q 385 776 406 756 q 364 828 364 797 q 385 879 364 858 q 436 900 406 900 m 175 900 q 226 879 206 900 q 247 828 247 858 q 226 776 247 797 q 175 756 206 756 q 124 776 144 756 q 103 828 103 797 q 124 879 103 858 q 175 900 144 900 z "},"©":{"ha":1139,"x_min":67,"x_max":1072,"o":"m 106 494 q 240 156 106 297 q 569 14 375 14 q 899 156 764 14 q 1033 494 1033 297 q 899 833 1033 692 q 569 975 764 975 q 240 833 375 975 q 106 494 106 692 m 67 494 q 212 863 67 711 q 569 1014 357 1014 q 927 863 782 1014 q 1072 494 1072 711 q 927 126 1072 278 q 569 -25 782 -25 q 212 126 357 -25 q 67 494 67 278 m 586 153 q 380 249 454 153 q 306 469 306 344 q 381 722 306 625 q 589 819 457 819 q 703 775 650 819 q 731 763 717 763 q 752 778 743 763 q 761 811 761 794 l 786 811 l 786 583 l 761 583 q 697 724 753 663 q 589 786 642 786 q 428 469 428 786 q 435 379 428 425 q 460 288 443 333 q 509 215 476 243 q 586 186 542 186 q 713 244 671 186 q 764 386 754 303 l 797 386 q 738 224 792 294 q 586 153 685 153 z "},"ª":{"ha":528,"x_min":86,"x_max":444,"o":"m 97 536 l 431 536 l 431 503 l 97 503 l 97 536 m 164 664 q 178 626 164 639 q 210 613 193 613 q 256 626 238 613 q 289 667 274 639 l 289 797 l 235 769 q 164 664 164 733 m 86 657 q 119 728 86 697 q 219 790 151 760 l 289 822 l 289 875 q 218 947 289 947 q 165 935 188 947 q 142 904 142 922 q 144 892 142 896 q 156 888 147 888 q 178 877 169 888 q 186 854 186 867 q 174 828 186 838 q 147 819 163 819 q 109 832 124 819 q 94 871 94 844 q 133 944 94 917 q 217 972 171 972 q 315 944 274 972 q 356 854 356 917 l 356 658 q 388 607 356 607 q 425 690 425 607 l 444 690 q 372 572 444 572 q 314 592 335 572 q 290 642 293 611 l 288 643 q 240 592 267 611 q 183 572 214 572 q 86 657 86 572 z "},"«":{"ha":667,"x_min":150,"x_max":508,"o":"m 368 317 q 406 467 368 401 q 489 569 444 533 l 508 550 q 435 317 435 457 q 508 83 435 176 l 489 64 q 406 166 444 100 q 368 317 368 232 m 150 317 q 199 481 150 407 q 311 594 249 554 l 332 574 q 228 317 228 481 q 332 60 228 153 l 311 39 q 199 153 249 79 q 150 317 150 226 z "},"¬":{"ha":806,"x_min":67,"x_max":739,"o":"m 67 453 l 67 508 l 739 508 l 739 222 l 678 222 l 678 453 l 67 453 z "},"­":{"ha":514,"x_min":83,"x_max":431,"o":"m 83 389 l 431 389 l 431 311 l 83 311 l 83 389 z "},"®":{"ha":1139,"x_min":67,"x_max":1072,"o":"m 467 531 l 574 531 q 647 563 619 531 q 675 653 675 594 q 572 781 675 781 l 497 781 q 467 750 467 781 l 467 531 m 278 181 l 278 214 l 336 214 q 367 244 367 214 l 367 750 q 336 781 367 781 l 278 781 l 278 814 l 594 814 q 740 774 682 814 q 797 661 797 735 q 780 593 797 622 q 735 548 763 564 q 688 525 708 532 q 647 514 667 518 l 647 508 q 774 349 760 485 q 779 285 778 315 q 792 234 781 254 q 825 214 803 214 q 871 255 858 214 q 883 339 883 296 l 908 339 q 904 288 908 313 q 890 232 900 263 q 853 183 879 201 q 790 164 828 164 q 719 183 747 164 q 668 304 668 219 l 668 379 q 640 471 668 444 q 575 497 611 497 l 467 497 l 467 244 q 497 214 467 214 l 558 214 l 558 181 l 278 181 m 106 494 q 240 156 106 297 q 569 14 375 14 q 899 156 764 14 q 1033 494 1033 297 q 899 833 1033 692 q 569 975 764 975 q 240 833 375 975 q 106 494 106 692 m 67 494 q 212 863 67 711 q 569 1014 357 1014 q 927 863 782 1014 q 1072 494 1072 711 q 927 126 1072 278 q 569 -25 782 -25 q 212 126 357 -25 q 67 494 67 278 z "},"°":{"ha":806,"x_min":214,"x_max":592,"o":"m 214 783 q 269 917 214 863 q 403 972 324 972 q 537 917 482 972 q 592 783 592 863 q 537 649 592 704 q 403 594 482 594 q 269 649 324 594 q 214 783 214 704 m 258 783 q 299 680 258 721 q 403 639 340 639 q 506 680 465 639 q 547 783 547 721 q 506 887 547 846 q 403 928 465 928 q 299 887 340 928 q 258 783 258 846 z "},"±":{"ha":1306,"x_min":67,"x_max":1239,"o":"m 67 469 l 67 525 l 622 525 l 622 906 l 683 906 l 683 525 l 1239 525 l 1239 469 l 683 469 l 683 89 l 622 89 l 622 469 l 67 469 m 67 -56 l 67 0 l 1228 0 l 1228 -56 l 67 -56 z "},"²":{"ha":611,"x_min":114,"x_max":497,"o":"m 479 389 l 125 389 q 128 440 125 418 q 156 501 132 461 q 228 576 181 540 l 315 644 q 397 807 397 710 q 364 901 397 864 q 269 939 331 939 q 192 914 225 939 q 158 854 158 889 q 196 813 158 819 q 247 763 247 806 q 235 735 247 746 q 200 725 222 725 q 138 752 163 725 q 114 824 114 779 q 165 930 114 888 q 294 972 217 972 q 441 928 385 972 q 497 810 497 885 q 357 629 497 722 l 268 569 q 192 486 192 518 q 219 467 192 467 l 389 467 q 440 476 426 467 q 460 513 453 486 l 472 563 l 492 563 l 479 389 z "},"³":{"ha":611,"x_min":150,"x_max":536,"o":"m 326 972 q 460 932 410 972 q 511 825 511 892 q 475 740 511 775 q 394 696 439 706 l 394 689 q 490 642 444 682 q 536 543 536 603 q 472 421 536 467 q 313 375 407 375 q 196 406 242 375 q 150 494 150 438 q 169 546 150 525 q 219 567 189 567 q 276 519 276 567 q 265 488 276 501 q 235 475 254 475 q 200 461 200 475 q 313 408 200 408 q 408 447 379 408 q 436 543 436 486 q 406 644 436 611 q 331 678 376 678 q 276 667 304 678 q 239 658 260 658 q 204 686 204 658 q 239 714 204 714 q 278 708 260 714 q 333 703 297 703 q 399 738 376 703 q 422 819 422 772 q 396 906 422 874 q 317 938 369 938 q 225 883 225 938 q 247 857 225 867 q 279 817 279 844 q 231 776 279 776 q 183 797 203 776 q 164 842 164 817 q 212 937 164 901 q 326 972 260 972 z "},"´":{"ha":611,"x_min":271,"x_max":506,"o":"m 467 950 q 506 907 506 950 q 467 846 506 875 l 289 706 l 271 721 l 399 906 q 467 950 431 950 z "},"µ":{"ha":842,"x_min":86,"x_max":803,"o":"m 86 492 q 158 644 86 644 q 219 522 219 644 q 182 267 219 475 q 167 174 169 203 q 227 83 181 118 q 338 47 274 47 q 410 60 378 47 q 461 90 442 72 q 493 131 481 108 q 510 170 506 153 q 514 200 514 188 q 501 319 514 236 q 486 494 486 422 q 558 647 486 647 q 617 603 597 647 q 636 483 636 558 q 618 299 636 411 q 576 124 600 188 q 618 85 592 99 q 671 72 644 72 q 739 99 714 72 q 772 163 764 126 q 803 86 803 125 q 779 13 803 42 q 713 -17 756 -17 q 569 93 625 -17 l 560 92 q 487 18 535 50 q 367 -14 439 -14 q 236 26 292 -14 q 151 124 181 67 q 144 42 144 81 q 159 -125 144 -67 q 203 -240 174 -183 q 233 -328 233 -300 q 218 -375 233 -358 q 178 -392 203 -392 q 129 -368 150 -392 q 100 -314 108 -344 q 92 -254 92 -283 q 108 -15 92 -171 q 122 183 122 114 q 97 313 108 228 q 86 492 86 397 z "},"¶":{"ha":750,"x_min":89,"x_max":661,"o":"m 661 989 l 661 942 l 567 942 l 567 -217 l 514 -217 l 514 942 l 375 942 l 375 -217 l 322 -217 l 322 536 q 155 597 221 536 q 89 756 89 657 q 156 922 89 856 q 322 989 222 989 l 661 989 z "},"·":{"ha":389,"x_min":108,"x_max":281,"o":"m 194 353 q 133 377 157 353 q 108 439 108 401 q 133 501 108 476 q 194 525 157 525 q 256 501 232 525 q 281 439 281 476 q 256 377 281 401 q 194 353 232 353 z "},"¸":{"ha":611,"x_min":158,"x_max":436,"o":"m 158 -244 q 175 -222 158 -244 q 212 -245 190 -235 q 261 -256 233 -256 q 323 -238 299 -256 q 347 -185 347 -221 q 333 -131 347 -147 q 286 -106 318 -112 l 239 -96 l 272 0 l 307 0 l 282 -74 l 315 -81 q 404 -122 372 -93 q 436 -197 436 -150 q 396 -267 436 -239 q 278 -294 356 -294 q 212 -279 246 -294 q 158 -244 178 -264 z "},"¹":{"ha":622,"x_min":156,"x_max":467,"o":"m 156 386 l 156 419 l 243 419 q 267 440 267 419 l 267 825 l 156 825 l 156 864 l 211 864 q 288 892 260 864 q 325 958 317 921 l 356 958 l 356 440 q 379 419 356 419 l 467 419 l 467 386 l 156 386 z "},"º":{"ha":528,"x_min":97,"x_max":431,"o":"m 97 536 l 431 536 l 431 503 l 97 503 l 97 536 m 263 597 q 332 650 311 597 q 353 772 353 703 q 332 894 353 842 q 263 947 311 947 q 195 895 215 947 q 175 772 175 843 q 195 649 175 701 q 263 597 215 597 m 263 572 q 145 631 193 572 q 97 772 97 689 q 145 914 97 856 q 263 972 193 972 q 382 914 333 972 q 431 772 431 856 q 382 631 431 689 q 263 572 333 572 z "},"»":{"ha":667,"x_min":158,"x_max":517,"o":"m 517 317 q 467 153 517 226 q 356 39 418 79 l 335 60 q 439 317 439 153 q 335 574 439 481 l 356 594 q 467 481 418 554 q 517 317 517 407 m 299 317 q 260 166 299 232 q 178 64 222 100 l 158 83 q 232 317 232 176 q 158 550 232 457 l 178 569 q 260 467 222 533 q 299 317 299 401 z "},"¼":{"ha":1194,"x_min":156,"x_max":1089,"o":"m 900 485 l 725 203 l 900 203 l 900 485 m 800 -3 l 800 31 l 876 31 q 900 51 900 31 l 900 164 l 686 164 l 686 203 l 917 569 l 989 569 l 989 203 l 1089 203 l 1089 164 l 989 164 l 989 51 q 1013 31 989 31 l 1089 31 l 1089 -3 l 800 -3 m 156 386 l 156 419 l 243 419 q 267 440 267 419 l 267 825 l 156 825 l 156 864 l 211 864 q 288 892 260 864 q 325 958 317 921 l 356 958 l 356 440 q 379 419 356 419 l 467 419 l 467 386 l 156 386 m 339 -25 l 289 -25 l 881 975 l 931 975 l 339 -25 z "},"½":{"ha":1194,"x_min":156,"x_max":1081,"o":"m 1063 0 l 708 0 q 712 51 708 29 q 740 112 715 72 q 811 188 764 151 l 899 256 q 981 418 981 321 q 947 513 981 475 q 853 550 914 550 q 775 525 808 550 q 742 465 742 500 q 779 424 742 431 q 831 374 831 417 q 818 347 831 357 q 783 336 806 336 q 722 363 746 336 q 697 435 697 390 q 749 541 697 499 q 878 583 800 583 q 1024 540 968 583 q 1081 421 1081 496 q 940 240 1081 333 l 851 181 q 775 97 775 129 q 803 78 775 78 l 972 78 q 1023 88 1010 78 q 1043 124 1036 97 l 1056 174 l 1075 174 l 1063 0 m 156 386 l 156 419 l 243 419 q 267 440 267 419 l 267 825 l 156 825 l 156 864 l 211 864 q 288 892 260 864 q 325 958 317 921 l 356 958 l 356 440 q 379 419 356 419 l 467 419 l 467 386 l 156 386 m 339 -25 l 289 -25 l 881 975 l 931 975 l 339 -25 z "},"¾":{"ha":1194,"x_min":150,"x_max":1089,"o":"m 900 485 l 725 203 l 900 203 l 900 485 m 800 -3 l 800 31 l 876 31 q 900 51 900 31 l 900 164 l 686 164 l 686 203 l 917 569 l 989 569 l 989 203 l 1089 203 l 1089 164 l 989 164 l 989 51 q 1013 31 989 31 l 1089 31 l 1089 -3 l 800 -3 m 326 972 q 460 932 410 972 q 511 825 511 892 q 475 740 511 775 q 394 696 439 706 l 394 689 q 490 642 444 682 q 536 543 536 603 q 472 421 536 467 q 313 375 407 375 q 196 406 242 375 q 150 494 150 438 q 169 546 150 525 q 219 567 189 567 q 276 519 276 567 q 265 488 276 501 q 235 475 254 475 q 200 461 200 475 q 313 408 200 408 q 408 447 379 408 q 436 543 436 486 q 406 644 436 611 q 331 678 376 678 q 276 667 304 678 q 239 658 260 658 q 204 686 204 658 q 239 714 204 714 q 278 708 260 714 q 333 703 297 703 q 399 738 376 703 q 422 819 422 772 q 396 906 422 874 q 317 938 369 938 q 225 883 225 938 q 247 857 225 867 q 279 817 279 844 q 231 776 279 776 q 183 797 203 776 q 164 842 164 817 q 212 937 164 901 q 326 972 260 972 m 339 -25 l 289 -25 l 881 975 l 931 975 l 339 -25 z "},"¿":{"ha":653,"x_min":47,"x_max":553,"o":"m 319 -331 q 126 -274 206 -331 q 47 -119 47 -218 q 64 -37 47 -76 q 115 36 81 1 q 176 92 150 71 q 251 146 203 113 q 375 311 375 231 q 297 378 375 378 q 238 353 261 378 q 214 286 214 328 q 221 250 214 264 l 196 239 q 181 288 181 264 q 217 381 181 343 q 297 419 254 419 q 387 390 351 419 q 422 307 422 361 q 406 236 422 265 q 356 169 390 207 l 250 56 q 190 -28 210 11 q 169 -119 169 -67 q 210 -241 169 -193 q 329 -289 250 -289 q 442 -256 393 -289 q 492 -181 492 -222 q 483 -140 492 -149 q 469 -135 476 -135 q 456 -136 460 -135 q 431 -139 446 -139 q 394 -123 407 -139 q 381 -83 381 -107 q 400 -35 381 -54 q 457 -17 419 -17 q 524 -49 496 -17 q 553 -137 553 -82 q 480 -275 553 -219 q 319 -331 407 -331 m 297 650 q 359 626 335 650 q 383 564 383 601 q 359 502 383 526 q 297 478 335 478 q 235 502 260 478 q 211 564 211 526 q 235 626 211 601 q 297 650 260 650 z "},"À":{"ha":1061,"x_min":64,"x_max":1031,"o":"m 389 1303 q 457 1258 425 1303 l 585 1074 l 567 1058 l 389 1199 q 350 1260 350 1228 q 389 1303 350 1303 m 369 342 l 654 342 l 510 763 l 369 342 m 64 0 l 64 44 l 115 44 q 232 146 196 44 l 533 989 l 568 989 l 869 106 q 953 44 894 44 l 1031 44 l 1031 0 l 600 0 l 600 44 l 692 44 q 726 55 713 44 q 740 79 740 65 q 735 110 740 97 l 672 292 l 351 292 l 319 201 q 300 118 300 146 q 316 67 300 89 q 371 44 332 44 l 444 44 l 444 0 l 64 0 z "},"Á":{"ha":1061,"x_min":64,"x_max":1031,"o":"m 711 1303 q 750 1260 750 1303 q 711 1199 750 1228 l 533 1058 l 515 1074 l 643 1258 q 711 1303 675 1303 m 369 342 l 654 342 l 510 763 l 369 342 m 64 0 l 64 44 l 115 44 q 232 146 196 44 l 533 989 l 568 989 l 869 106 q 953 44 894 44 l 1031 44 l 1031 0 l 600 0 l 600 44 l 692 44 q 726 55 713 44 q 740 79 740 65 q 735 110 740 97 l 672 292 l 351 292 l 319 201 q 300 118 300 146 q 316 67 300 89 q 371 44 332 44 l 444 44 l 444 0 l 64 0 z "},"Â":{"ha":1061,"x_min":64,"x_max":1031,"o":"m 578 1278 q 769 1081 643 1153 l 756 1058 q 656 1112 719 1071 q 550 1192 593 1153 q 444 1112 507 1153 q 344 1058 381 1071 l 331 1081 q 522 1278 457 1153 l 578 1278 m 369 342 l 654 342 l 510 763 l 369 342 m 64 0 l 64 44 l 115 44 q 232 146 196 44 l 533 989 l 568 989 l 869 106 q 953 44 894 44 l 1031 44 l 1031 0 l 600 0 l 600 44 l 692 44 q 726 55 713 44 q 740 79 740 65 q 735 110 740 97 l 672 292 l 351 292 l 319 201 q 300 118 300 146 q 316 67 300 89 q 371 44 332 44 l 444 44 l 444 0 l 64 0 z "},"Ã":{"ha":1061,"x_min":64,"x_max":1031,"o":"m 653 1125 q 535 1153 608 1125 q 428 1181 461 1181 q 378 1125 388 1181 l 347 1125 q 376 1217 347 1179 q 458 1256 406 1256 q 576 1228 503 1256 q 683 1200 650 1200 q 733 1256 724 1200 l 764 1256 q 735 1163 764 1201 q 653 1125 706 1125 m 369 342 l 654 342 l 510 763 l 369 342 m 64 0 l 64 44 l 115 44 q 232 146 196 44 l 533 989 l 568 989 l 869 106 q 953 44 894 44 l 1031 44 l 1031 0 l 600 0 l 600 44 l 692 44 q 726 55 713 44 q 740 79 740 65 q 735 110 740 97 l 672 292 l 351 292 l 319 201 q 300 118 300 146 q 316 67 300 89 q 371 44 332 44 l 444 44 l 444 0 l 64 0 z "},"Ä":{"ha":1061,"x_min":64,"x_max":1031,"o":"m 692 1253 q 743 1232 722 1253 q 764 1181 764 1211 q 743 1129 764 1150 q 692 1108 722 1108 q 640 1129 661 1108 q 619 1181 619 1150 q 640 1232 619 1211 q 692 1253 661 1253 m 408 1253 q 460 1232 439 1253 q 481 1181 481 1211 q 460 1129 481 1150 q 408 1108 439 1108 q 357 1129 378 1108 q 336 1181 336 1150 q 357 1232 336 1211 q 408 1253 378 1253 m 369 342 l 654 342 l 510 763 l 369 342 m 64 0 l 64 44 l 115 44 q 232 146 196 44 l 533 989 l 568 989 l 869 106 q 953 44 894 44 l 1031 44 l 1031 0 l 600 0 l 600 44 l 692 44 q 726 55 713 44 q 740 79 740 65 q 735 110 740 97 l 672 292 l 351 292 l 319 201 q 300 118 300 146 q 316 67 300 89 q 371 44 332 44 l 444 44 l 444 0 l 64 0 z "},"Å":{"ha":1061,"x_min":64,"x_max":1031,"o":"m 550 1047 q 455 1087 494 1047 q 415 1183 415 1126 q 454 1278 415 1239 q 550 1317 493 1317 q 646 1278 607 1317 q 685 1183 685 1239 q 645 1087 685 1126 q 550 1047 606 1047 m 550 1081 q 622 1110 593 1081 q 651 1183 651 1139 q 623 1255 651 1226 q 550 1283 594 1283 q 477 1255 506 1283 q 449 1183 449 1226 q 478 1110 449 1139 q 550 1081 507 1081 m 369 342 l 654 342 l 510 763 l 369 342 m 64 0 l 64 44 l 115 44 q 232 146 196 44 l 533 989 l 568 989 l 869 106 q 953 44 894 44 l 1031 44 l 1031 0 l 600 0 l 600 44 l 692 44 q 726 55 713 44 q 740 79 740 65 q 735 110 740 97 l 672 292 l 351 292 l 319 201 q 300 118 300 146 q 316 67 300 89 q 371 44 332 44 l 444 44 l 444 0 l 64 0 z "},"Æ":{"ha":1394,"x_min":36,"x_max":1314,"o":"m 36 0 l 36 44 l 81 44 q 160 69 126 44 q 221 146 194 94 l 590 844 q 608 883 604 871 q 614 917 614 900 q 579 944 614 944 l 522 944 l 522 989 l 1297 989 l 1303 675 l 1268 675 l 1267 703 q 1250 779 1265 725 q 1211 864 1236 826 q 1049 944 1158 944 l 825 944 q 788 907 788 944 l 788 528 l 910 528 q 972 545 947 528 q 1007 594 997 563 q 1020 654 1017 626 q 1024 719 1024 682 l 1060 719 l 1060 285 l 1024 285 q 1021 351 1024 324 q 1008 410 1018 378 q 972 460 997 443 q 910 478 947 478 l 788 478 l 788 82 q 825 44 788 44 l 1046 44 q 1128 61 1088 44 q 1201 117 1175 81 q 1249 219 1229 156 q 1274 328 1268 283 l 1279 372 l 1314 372 l 1297 0 l 529 0 l 529 44 l 622 44 q 660 82 660 44 l 660 292 l 358 292 l 310 201 q 285 110 285 156 q 346 44 285 44 l 411 44 l 411 0 l 36 0 m 660 342 l 660 861 l 385 342 l 660 342 z "},"Ç":{"ha":931,"x_min":97,"x_max":842,"o":"m 97 503 q 143 758 97 643 q 278 944 189 874 q 486 1014 367 1014 q 658 950 571 1014 q 694 924 681 936 q 733 904 717 904 q 749 910 744 904 q 761 935 754 917 l 785 1003 l 819 1003 l 819 617 l 785 617 q 656 878 739 786 q 486 969 574 969 q 385 947 428 969 q 315 888 342 925 q 272 789 289 850 q 250 660 256 728 q 244 503 244 593 q 251 343 244 413 q 276 210 258 274 q 324 107 294 147 q 399 43 353 67 q 508 19 446 19 q 610 39 564 19 q 689 91 657 58 q 744 168 721 124 q 778 260 767 213 q 792 360 789 308 l 842 360 q 835 297 840 329 q 819 227 831 265 q 792 154 808 189 q 749 86 775 119 q 690 28 722 53 q 610 -10 657 4 q 508 -25 564 -25 l 493 -25 l 476 -75 l 513 -83 q 606 -131 572 -97 q 639 -214 639 -165 q 593 -299 639 -267 q 464 -331 547 -331 q 379 -310 417 -331 q 319 -260 342 -289 l 342 -236 q 444 -286 394 -286 q 512 -268 485 -286 q 539 -206 539 -250 q 522 -146 539 -167 q 465 -115 506 -125 l 422 -106 l 450 -21 q 298 42 367 -8 q 186 164 229 92 q 120 324 143 236 q 97 503 97 411 z "},"È":{"ha":958,"x_min":86,"x_max":878,"o":"m 350 1303 q 418 1258 386 1303 l 546 1074 l 528 1058 l 350 1199 q 311 1260 311 1228 q 350 1303 311 1303 m 86 0 l 86 44 l 186 44 q 224 82 224 44 l 224 907 q 186 944 224 944 l 86 944 l 86 989 l 861 989 l 867 675 l 832 675 l 831 703 q 814 779 828 732 q 775 864 800 826 q 613 944 722 944 l 389 944 q 351 907 351 944 l 351 528 l 474 528 q 536 545 511 528 q 571 594 561 563 q 584 654 581 626 q 588 719 588 682 l 624 719 l 624 285 l 588 285 q 585 351 588 324 q 572 410 582 378 q 536 460 561 443 q 474 478 511 478 l 351 478 l 351 82 q 389 44 351 44 l 611 44 q 692 62 649 44 q 764 115 736 79 q 812 218 792 154 q 838 328 832 282 l 843 372 l 878 372 l 861 0 l 86 0 z "},"É":{"ha":958,"x_min":86,"x_max":878,"o":"m 672 1303 q 711 1260 711 1303 q 672 1199 711 1228 l 494 1058 l 476 1074 l 604 1258 q 672 1303 636 1303 m 86 0 l 86 44 l 186 44 q 224 82 224 44 l 224 907 q 186 944 224 944 l 86 944 l 86 989 l 861 989 l 867 675 l 832 675 l 831 703 q 814 779 828 732 q 775 864 800 826 q 613 944 722 944 l 389 944 q 351 907 351 944 l 351 528 l 474 528 q 536 545 511 528 q 571 594 561 563 q 584 654 581 626 q 588 719 588 682 l 624 719 l 624 285 l 588 285 q 585 351 588 324 q 572 410 582 378 q 536 460 561 443 q 474 478 511 478 l 351 478 l 351 82 q 389 44 351 44 l 611 44 q 692 62 649 44 q 764 115 736 79 q 812 218 792 154 q 838 328 832 282 l 843 372 l 878 372 l 861 0 l 86 0 z "},"Ê":{"ha":958,"x_min":86,"x_max":878,"o":"m 539 1278 q 731 1081 604 1153 l 717 1058 q 617 1112 681 1071 q 511 1192 554 1153 q 405 1112 468 1153 q 306 1058 342 1071 l 292 1081 q 483 1278 418 1153 l 539 1278 m 86 0 l 86 44 l 186 44 q 224 82 224 44 l 224 907 q 186 944 224 944 l 86 944 l 86 989 l 861 989 l 867 675 l 832 675 l 831 703 q 814 779 828 732 q 775 864 800 826 q 613 944 722 944 l 389 944 q 351 907 351 944 l 351 528 l 474 528 q 536 545 511 528 q 571 594 561 563 q 584 654 581 626 q 588 719 588 682 l 624 719 l 624 285 l 588 285 q 585 351 588 324 q 572 410 582 378 q 536 460 561 443 q 474 478 511 478 l 351 478 l 351 82 q 389 44 351 44 l 611 44 q 692 62 649 44 q 764 115 736 79 q 812 218 792 154 q 838 328 832 282 l 843 372 l 878 372 l 861 0 l 86 0 z "},"Ë":{"ha":958,"x_min":86,"x_max":878,"o":"m 653 1253 q 704 1232 683 1253 q 725 1181 725 1211 q 704 1129 725 1150 q 653 1108 683 1108 q 601 1129 622 1108 q 581 1181 581 1150 q 601 1232 581 1211 q 653 1253 622 1253 m 369 1253 q 421 1232 400 1253 q 442 1181 442 1211 q 421 1129 442 1150 q 369 1108 400 1108 q 318 1129 339 1108 q 297 1181 297 1150 q 318 1232 297 1211 q 369 1253 339 1253 m 86 0 l 86 44 l 186 44 q 224 82 224 44 l 224 907 q 186 944 224 944 l 86 944 l 86 989 l 861 989 l 867 675 l 832 675 l 831 703 q 814 779 828 732 q 775 864 800 826 q 613 944 722 944 l 389 944 q 351 907 351 944 l 351 528 l 474 528 q 536 545 511 528 q 571 594 561 563 q 584 654 581 626 q 588 719 588 682 l 624 719 l 624 285 l 588 285 q 585 351 588 324 q 572 410 582 378 q 536 460 561 443 q 474 478 511 478 l 351 478 l 351 82 q 389 44 351 44 l 611 44 q 692 62 649 44 q 764 115 736 79 q 812 218 792 154 q 838 328 832 282 l 843 372 l 878 372 l 861 0 l 86 0 z "},"Ì":{"ha":547,"x_min":86,"x_max":489,"o":"m 128 1303 q 196 1258 164 1303 l 324 1074 l 306 1058 l 128 1199 q 89 1260 89 1228 q 128 1303 89 1303 m 86 0 l 86 44 l 186 44 q 224 82 224 44 l 224 907 q 186 944 224 944 l 86 944 l 86 989 l 489 989 l 489 944 l 389 944 q 351 907 351 944 l 351 82 q 389 44 351 44 l 489 44 l 489 0 l 86 0 z "},"Í":{"ha":547,"x_min":86,"x_max":489,"o":"m 450 1303 q 489 1260 489 1303 q 450 1199 489 1228 l 272 1058 l 254 1074 l 382 1258 q 450 1303 414 1303 m 86 0 l 86 44 l 186 44 q 224 82 224 44 l 224 907 q 186 944 224 944 l 86 944 l 86 989 l 489 989 l 489 944 l 389 944 q 351 907 351 944 l 351 82 q 389 44 351 44 l 489 44 l 489 0 l 86 0 z "},"Î":{"ha":547,"x_min":69,"x_max":508,"o":"m 317 1278 q 508 1081 382 1153 l 494 1058 q 395 1112 458 1071 q 289 1192 332 1153 q 183 1112 246 1153 q 83 1058 119 1071 l 69 1081 q 261 1278 196 1153 l 317 1278 m 86 0 l 86 44 l 186 44 q 224 82 224 44 l 224 907 q 186 944 224 944 l 86 944 l 86 989 l 489 989 l 489 944 l 389 944 q 351 907 351 944 l 351 82 q 389 44 351 44 l 489 44 l 489 0 l 86 0 z "},"Ï":{"ha":547,"x_min":75,"x_max":503,"o":"m 431 1253 q 482 1232 461 1253 q 503 1181 503 1211 q 482 1129 503 1150 q 431 1108 461 1108 q 379 1129 400 1108 q 358 1181 358 1150 q 379 1232 358 1211 q 431 1253 400 1253 m 147 1253 q 199 1232 178 1253 q 219 1181 219 1211 q 199 1129 219 1150 q 147 1108 178 1108 q 96 1129 117 1108 q 75 1181 75 1150 q 96 1232 75 1211 q 147 1253 117 1253 m 86 0 l 86 44 l 186 44 q 224 82 224 44 l 224 907 q 186 944 224 944 l 86 944 l 86 989 l 489 989 l 489 944 l 389 944 q 351 907 351 944 l 351 82 q 389 44 351 44 l 489 44 l 489 0 l 86 0 z "},"Ñ":{"ha":1069,"x_min":86,"x_max":1025,"o":"m 681 1125 q 563 1153 636 1125 q 456 1181 489 1181 q 406 1125 415 1181 l 375 1125 q 404 1217 375 1179 q 486 1256 433 1256 q 604 1228 531 1256 q 711 1200 678 1200 q 761 1256 751 1200 l 792 1256 q 763 1163 792 1201 q 681 1125 733 1125 m 86 0 l 86 44 l 136 44 q 200 74 176 44 q 224 156 224 104 l 224 907 q 186 944 222 944 l 86 944 l 86 989 l 349 989 l 831 214 l 831 833 q 807 915 831 885 q 744 944 783 944 l 694 944 l 694 989 l 1025 989 l 1025 944 l 975 944 q 911 915 936 944 q 886 833 886 885 l 886 -25 l 831 -25 l 285 838 l 279 838 l 279 156 q 303 74 279 104 q 367 44 328 44 l 417 44 l 417 0 l 86 0 z "},"Ò":{"ha":972,"x_min":97,"x_max":903,"o":"m 339 1303 q 407 1258 375 1303 l 535 1074 l 517 1058 l 339 1199 q 300 1260 300 1228 q 339 1303 300 1303 m 500 -25 q 290 51 383 -25 q 147 244 196 126 q 97 494 97 363 q 147 744 97 626 q 290 938 196 863 q 500 1014 383 1014 q 710 938 617 1014 q 853 744 804 863 q 903 494 903 626 q 853 244 903 363 q 710 51 804 126 q 500 -25 617 -25 m 500 19 q 756 494 756 19 q 500 969 756 969 q 244 494 244 969 q 500 19 244 19 z "},"Ó":{"ha":972,"x_min":97,"x_max":903,"o":"m 661 1303 q 700 1260 700 1303 q 661 1199 700 1228 l 483 1058 l 465 1074 l 593 1258 q 661 1303 625 1303 m 500 -25 q 290 51 383 -25 q 147 244 196 126 q 97 494 97 363 q 147 744 97 626 q 290 938 196 863 q 500 1014 383 1014 q 710 938 617 1014 q 853 744 804 863 q 903 494 903 626 q 853 244 903 363 q 710 51 804 126 q 500 -25 617 -25 m 500 19 q 756 494 756 19 q 500 969 756 969 q 244 494 244 969 q 500 19 244 19 z "},"Ô":{"ha":972,"x_min":97,"x_max":903,"o":"m 528 1278 q 719 1081 593 1153 l 706 1058 q 606 1112 669 1071 q 500 1192 543 1153 q 394 1112 457 1153 q 294 1058 331 1071 l 281 1081 q 472 1278 407 1153 l 528 1278 m 500 -25 q 290 51 383 -25 q 147 244 196 126 q 97 494 97 363 q 147 744 97 626 q 290 938 196 863 q 500 1014 383 1014 q 710 938 617 1014 q 853 744 804 863 q 903 494 903 626 q 853 244 903 363 q 710 51 804 126 q 500 -25 617 -25 m 500 19 q 756 494 756 19 q 500 969 756 969 q 244 494 244 969 q 500 19 244 19 z "},"Õ":{"ha":972,"x_min":97,"x_max":903,"o":"m 603 1125 q 485 1153 558 1125 q 378 1181 411 1181 q 328 1125 338 1181 l 297 1125 q 326 1217 297 1179 q 408 1256 356 1256 q 526 1228 453 1256 q 633 1200 600 1200 q 683 1256 674 1200 l 714 1256 q 685 1163 714 1201 q 603 1125 656 1125 m 500 -25 q 290 51 383 -25 q 147 244 196 126 q 97 494 97 363 q 147 744 97 626 q 290 938 196 863 q 500 1014 383 1014 q 710 938 617 1014 q 853 744 804 863 q 903 494 903 626 q 853 244 903 363 q 710 51 804 126 q 500 -25 617 -25 m 500 19 q 756 494 756 19 q 500 969 756 969 q 244 494 244 969 q 500 19 244 19 z "},"Ö":{"ha":972,"x_min":97,"x_max":903,"o":"m 642 1253 q 693 1232 672 1253 q 714 1181 714 1211 q 693 1129 714 1150 q 642 1108 672 1108 q 590 1129 611 1108 q 569 1181 569 1150 q 590 1232 569 1211 q 642 1253 611 1253 m 358 1253 q 410 1232 389 1253 q 431 1181 431 1211 q 410 1129 431 1150 q 358 1108 389 1108 q 307 1129 328 1108 q 286 1181 286 1150 q 307 1232 286 1211 q 358 1253 328 1253 m 500 -25 q 290 51 383 -25 q 147 244 196 126 q 97 494 97 363 q 147 744 97 626 q 290 938 196 863 q 500 1014 383 1014 q 710 938 617 1014 q 853 744 804 863 q 903 494 903 626 q 853 244 903 363 q 710 51 804 126 q 500 -25 617 -25 m 500 19 q 756 494 756 19 q 500 969 756 969 q 244 494 244 969 q 500 19 244 19 z "},"×":{"ha":1306,"x_min":217,"x_max":1089,"o":"m 261 -69 l 217 -25 l 610 367 l 217 758 l 261 803 l 653 410 l 1044 803 l 1089 758 l 696 367 l 1089 -25 l 1044 -69 l 653 324 l 261 -69 z "},"Ø":{"ha":972,"x_min":97,"x_max":903,"o":"m 500 -25 q 236 100 347 -25 l 142 -25 l 97 8 l 201 146 q 97 494 97 296 q 211 857 97 700 q 500 1014 325 1014 q 763 890 650 1014 l 856 1014 l 900 981 l 797 844 q 903 494 903 696 q 853 244 903 363 q 710 51 804 126 q 500 -25 617 -25 m 500 19 q 756 494 756 19 q 729 754 756 649 l 290 172 q 500 19 353 19 m 500 969 q 244 494 244 969 q 269 238 244 346 l 708 818 q 500 969 647 969 z "},"Ù":{"ha":1117,"x_min":86,"x_max":1058,"o":"m 425 1303 q 493 1258 461 1303 l 621 1074 l 603 1058 l 425 1199 q 386 1260 386 1228 q 425 1303 386 1303 m 589 -25 q 421 5 493 -25 q 307 85 349 35 q 244 198 265 136 q 224 329 224 260 l 224 907 q 186 944 224 944 l 86 944 l 86 989 l 490 989 l 490 944 l 389 944 q 351 907 351 944 l 351 292 q 414 91 351 163 q 589 19 476 19 q 792 94 719 19 q 865 275 865 168 l 865 832 q 840 914 865 883 q 776 944 815 944 l 728 944 l 728 989 l 1058 989 l 1058 944 l 1010 944 q 946 914 971 944 q 921 832 921 883 l 921 289 q 831 65 921 154 q 589 -25 742 -25 z "},"Ú":{"ha":1117,"x_min":86,"x_max":1058,"o":"m 747 1303 q 786 1260 786 1303 q 747 1199 786 1228 l 569 1058 l 551 1074 l 679 1258 q 747 1303 711 1303 m 589 -25 q 421 5 493 -25 q 307 85 349 35 q 244 198 265 136 q 224 329 224 260 l 224 907 q 186 944 224 944 l 86 944 l 86 989 l 490 989 l 490 944 l 389 944 q 351 907 351 944 l 351 292 q 414 91 351 163 q 589 19 476 19 q 792 94 719 19 q 865 275 865 168 l 865 832 q 840 914 865 883 q 776 944 815 944 l 728 944 l 728 989 l 1058 989 l 1058 944 l 1010 944 q 946 914 971 944 q 921 832 921 883 l 921 289 q 831 65 921 154 q 589 -25 742 -25 z "},"Û":{"ha":1117,"x_min":86,"x_max":1058,"o":"m 614 1278 q 806 1081 679 1153 l 792 1058 q 692 1112 756 1071 q 586 1192 629 1153 q 480 1112 543 1153 q 381 1058 417 1071 l 367 1081 q 558 1278 493 1153 l 614 1278 m 589 -25 q 421 5 493 -25 q 307 85 349 35 q 244 198 265 136 q 224 329 224 260 l 224 907 q 186 944 224 944 l 86 944 l 86 989 l 490 989 l 490 944 l 389 944 q 351 907 351 944 l 351 292 q 414 91 351 163 q 589 19 476 19 q 792 94 719 19 q 865 275 865 168 l 865 832 q 840 914 865 883 q 776 944 815 944 l 728 944 l 728 989 l 1058 989 l 1058 944 l 1010 944 q 946 914 971 944 q 921 832 921 883 l 921 289 q 831 65 921 154 q 589 -25 742 -25 z "},"Ü":{"ha":1117,"x_min":86,"x_max":1058,"o":"m 728 1253 q 779 1232 758 1253 q 800 1181 800 1211 q 779 1129 800 1150 q 728 1108 758 1108 q 676 1129 697 1108 q 656 1181 656 1150 q 676 1232 656 1211 q 728 1253 697 1253 m 444 1253 q 496 1232 475 1253 q 517 1181 517 1211 q 496 1129 517 1150 q 444 1108 475 1108 q 393 1129 414 1108 q 372 1181 372 1150 q 393 1232 372 1211 q 444 1253 414 1253 m 589 -25 q 421 5 493 -25 q 307 85 349 35 q 244 198 265 136 q 224 329 224 260 l 224 907 q 186 944 224 944 l 86 944 l 86 989 l 490 989 l 490 944 l 389 944 q 351 907 351 944 l 351 292 q 414 91 351 163 q 589 19 476 19 q 792 94 719 19 q 865 275 865 168 l 865 832 q 840 914 865 883 q 776 944 815 944 l 728 944 l 728 989 l 1058 989 l 1058 944 l 1010 944 q 946 914 971 944 q 921 832 921 883 l 921 289 q 831 65 921 154 q 589 -25 742 -25 z "},"Ý":{"ha":1011,"x_min":58,"x_max":975,"o":"m 706 1303 q 744 1260 744 1303 q 706 1199 744 1228 l 528 1058 l 510 1074 l 638 1258 q 706 1303 669 1303 m 311 0 l 311 44 l 444 44 q 482 82 482 44 l 482 442 l 213 883 q 175 932 192 919 q 131 944 158 944 l 58 944 l 58 989 l 489 989 l 489 944 l 411 944 q 376 935 390 944 q 363 910 363 925 q 369 879 363 889 l 583 508 l 725 781 q 740 819 732 790 q 749 865 749 849 q 730 922 749 899 q 672 944 711 944 l 631 944 l 631 989 l 975 989 l 975 944 l 935 944 q 875 926 901 944 q 838 891 849 907 q 808 843 826 875 l 610 465 l 610 82 q 647 44 610 44 l 781 44 l 781 0 l 311 0 z "},"Þ":{"ha":944,"x_min":86,"x_max":883,"o":"m 86 0 l 86 44 l 186 44 q 224 82 224 44 l 224 907 q 186 944 224 944 l 86 944 l 86 989 l 511 989 l 511 944 l 389 944 q 351 907 351 944 l 351 814 l 550 814 q 790 742 697 814 q 883 556 883 671 q 790 366 883 440 q 550 292 697 292 l 351 292 l 351 82 q 389 44 351 44 l 511 44 l 511 0 l 86 0 m 351 336 l 568 336 q 690 401 643 336 q 736 556 736 465 q 690 708 736 646 q 568 769 644 769 l 389 769 q 351 732 351 769 l 351 336 z "},"ß":{"ha":731,"x_min":39,"x_max":664,"o":"m 39 0 l 39 33 l 111 33 q 142 64 142 33 l 142 707 q 220 922 142 847 q 400 997 299 997 q 556 946 497 997 q 614 813 614 894 q 551 674 614 729 q 415 600 489 618 l 415 594 q 501 557 460 582 q 580 491 542 532 q 641 388 618 450 q 664 247 664 325 q 598 56 664 128 q 433 -17 532 -17 q 325 21 369 -17 q 281 117 281 58 q 301 178 281 157 q 353 200 322 200 q 414 142 414 200 q 372 89 414 110 q 356 67 356 79 q 378 30 356 43 q 435 17 401 17 q 514 68 486 17 q 542 247 542 119 q 494 485 542 393 q 361 578 447 578 l 308 578 l 308 617 l 361 617 q 472 673 436 617 q 508 806 508 729 q 393 964 508 964 q 287 905 332 964 q 242 733 242 846 l 242 0 l 39 0 z "},"à":{"ha":694,"x_min":64,"x_max":661,"o":"m 156 950 q 224 906 192 950 l 351 721 l 333 706 l 156 846 q 117 907 117 875 q 156 950 117 950 m 181 143 q 267 33 181 33 q 327 49 300 33 q 374 97 354 65 q 405 151 394 128 q 428 208 415 174 l 428 340 l 307 314 q 210 259 240 300 q 181 143 181 218 m 64 147 q 81 224 64 190 q 119 278 97 258 q 178 313 140 297 q 238 333 215 328 q 300 346 261 339 l 428 369 l 428 488 q 299 617 428 617 q 213 592 251 617 q 174 538 174 568 q 178 517 174 524 q 199 503 183 506 q 250 449 250 489 q 189 394 250 394 q 133 418 158 394 q 108 486 108 442 q 168 606 108 563 q 303 650 228 650 q 461 602 394 650 q 528 453 528 554 l 528 111 q 571 42 528 42 q 636 181 636 42 l 661 181 q 550 -17 661 -17 q 428 117 432 -17 l 421 119 q 353 27 400 71 q 244 -17 307 -17 q 117 19 171 -17 q 64 147 64 56 z "},"á":{"ha":694,"x_min":64,"x_max":661,"o":"m 478 950 q 517 907 517 950 q 478 846 517 875 l 300 706 l 282 721 l 410 906 q 478 950 442 950 m 181 143 q 267 33 181 33 q 327 49 300 33 q 374 97 354 65 q 405 151 394 128 q 428 208 415 174 l 428 340 l 307 314 q 210 259 240 300 q 181 143 181 218 m 64 147 q 81 224 64 190 q 119 278 97 258 q 178 313 140 297 q 238 333 215 328 q 300 346 261 339 l 428 369 l 428 488 q 299 617 428 617 q 213 592 251 617 q 174 538 174 568 q 178 517 174 524 q 199 503 183 506 q 250 449 250 489 q 189 394 250 394 q 133 418 158 394 q 108 486 108 442 q 168 606 108 563 q 303 650 228 650 q 461 602 394 650 q 528 453 528 554 l 528 111 q 571 42 528 42 q 636 181 636 42 l 661 181 q 550 -17 661 -17 q 428 117 432 -17 l 421 119 q 353 27 400 71 q 244 -17 307 -17 q 117 19 171 -17 q 64 147 64 56 z "},"â":{"ha":694,"x_min":64,"x_max":661,"o":"m 344 933 q 499 724 394 790 l 486 706 q 317 833 392 754 q 147 706 242 754 l 135 724 q 289 933 239 790 l 344 933 m 181 143 q 267 33 181 33 q 327 49 300 33 q 374 97 354 65 q 405 151 394 128 q 428 208 415 174 l 428 340 l 307 314 q 210 259 240 300 q 181 143 181 218 m 64 147 q 81 224 64 190 q 119 278 97 258 q 178 313 140 297 q 238 333 215 328 q 300 346 261 339 l 428 369 l 428 488 q 299 617 428 617 q 213 592 251 617 q 174 538 174 568 q 178 517 174 524 q 199 503 183 506 q 250 449 250 489 q 189 394 250 394 q 133 418 158 394 q 108 486 108 442 q 168 606 108 563 q 303 650 228 650 q 461 602 394 650 q 528 453 528 554 l 528 111 q 571 42 528 42 q 636 181 636 42 l 661 181 q 550 -17 661 -17 q 428 117 432 -17 l 421 119 q 353 27 400 71 q 244 -17 307 -17 q 117 19 171 -17 q 64 147 64 56 z "},"ã":{"ha":694,"x_min":64,"x_max":661,"o":"m 397 772 q 296 800 353 772 q 206 828 239 828 q 156 772 165 828 l 125 772 q 154 865 125 826 q 236 903 183 903 q 338 875 281 903 q 428 847 394 847 q 478 903 468 847 l 508 903 q 479 810 508 849 q 397 772 450 772 m 181 143 q 267 33 181 33 q 327 49 300 33 q 374 97 354 65 q 405 151 394 128 q 428 208 415 174 l 428 340 l 307 314 q 210 259 240 300 q 181 143 181 218 m 64 147 q 81 224 64 190 q 119 278 97 258 q 178 313 140 297 q 238 333 215 328 q 300 346 261 339 l 428 369 l 428 488 q 299 617 428 617 q 213 592 251 617 q 174 538 174 568 q 178 517 174 524 q 199 503 183 506 q 250 449 250 489 q 189 394 250 394 q 133 418 158 394 q 108 486 108 442 q 168 606 108 563 q 303 650 228 650 q 461 602 394 650 q 528 453 528 554 l 528 111 q 571 42 528 42 q 636 181 636 42 l 661 181 q 550 -17 661 -17 q 428 117 432 -17 l 421 119 q 353 27 400 71 q 244 -17 307 -17 q 117 19 171 -17 q 64 147 64 56 z "},"ä":{"ha":694,"x_min":64,"x_max":661,"o":"m 447 900 q 499 879 478 900 q 519 828 519 858 q 499 776 519 797 q 447 756 478 756 q 396 776 417 756 q 375 828 375 797 q 396 879 375 858 q 447 900 417 900 m 186 900 q 238 879 217 900 q 258 828 258 858 q 238 776 258 797 q 186 756 217 756 q 135 776 156 756 q 114 828 114 797 q 135 879 114 858 q 186 900 156 900 m 181 143 q 267 33 181 33 q 327 49 300 33 q 374 97 354 65 q 405 151 394 128 q 428 208 415 174 l 428 340 l 307 314 q 210 259 240 300 q 181 143 181 218 m 64 147 q 81 224 64 190 q 119 278 97 258 q 178 313 140 297 q 238 333 215 328 q 300 346 261 339 l 428 369 l 428 488 q 299 617 428 617 q 213 592 251 617 q 174 538 174 568 q 178 517 174 524 q 199 503 183 506 q 250 449 250 489 q 189 394 250 394 q 133 418 158 394 q 108 486 108 442 q 168 606 108 563 q 303 650 228 650 q 461 602 394 650 q 528 453 528 554 l 528 111 q 571 42 528 42 q 636 181 636 42 l 661 181 q 550 -17 661 -17 q 428 117 432 -17 l 421 119 q 353 27 400 71 q 244 -17 307 -17 q 117 19 171 -17 q 64 147 64 56 z "},"å":{"ha":694,"x_min":64,"x_max":661,"o":"m 317 694 q 222 734 261 694 q 182 831 182 774 q 221 925 182 886 q 317 964 260 964 q 413 925 374 964 q 451 831 451 886 q 412 734 451 774 q 317 694 372 694 m 317 728 q 389 757 360 728 q 418 831 418 786 q 390 902 418 874 q 317 931 361 931 q 244 902 272 931 q 215 831 215 874 q 244 757 215 786 q 317 728 274 728 m 181 143 q 267 33 181 33 q 327 49 300 33 q 374 97 354 65 q 405 151 394 128 q 428 208 415 174 l 428 340 l 307 314 q 210 259 240 300 q 181 143 181 218 m 64 147 q 81 224 64 190 q 119 278 97 258 q 178 313 140 297 q 238 333 215 328 q 300 346 261 339 l 428 369 l 428 488 q 299 617 428 617 q 213 592 251 617 q 174 538 174 568 q 178 517 174 524 q 199 503 183 506 q 250 449 250 489 q 189 394 250 394 q 133 418 158 394 q 108 486 108 442 q 168 606 108 563 q 303 650 228 650 q 461 602 394 650 q 528 453 528 554 l 528 111 q 571 42 528 42 q 636 181 636 42 l 661 181 q 550 -17 661 -17 q 428 117 432 -17 l 421 119 q 353 27 400 71 q 244 -17 307 -17 q 117 19 171 -17 q 64 147 64 56 z "},"æ":{"ha":978,"x_min":64,"x_max":911,"o":"m 64 147 q 81 224 64 190 q 119 277 97 258 q 177 311 140 296 q 238 333 214 326 q 300 346 261 339 l 428 369 l 428 488 q 299 617 428 617 q 213 592 251 617 q 174 538 174 568 q 178 517 174 524 q 199 503 183 506 q 250 449 250 489 q 189 394 250 394 q 133 418 158 394 q 108 486 108 442 q 168 606 108 563 q 303 650 228 650 q 494 567 439 650 q 667 650 568 650 q 777 619 728 650 q 854 537 826 588 q 897 428 882 486 q 911 311 911 369 l 528 311 q 563 93 528 169 q 686 17 597 17 q 740 26 714 17 q 792 55 765 35 q 838 117 818 75 q 864 217 857 158 l 897 217 q 835 49 889 114 q 683 -17 781 -17 q 438 151 513 -17 q 362 33 414 82 q 244 -17 310 -17 q 117 19 171 -17 q 64 147 64 56 m 528 350 l 792 350 q 760 538 792 458 q 661 617 729 617 q 560 537 593 617 q 528 350 528 457 m 181 143 q 267 33 181 33 q 327 49 300 33 q 374 97 354 65 q 404 151 393 128 q 428 208 415 174 l 428 340 l 307 314 q 210 259 240 300 q 181 143 181 218 z "},"ç":{"ha":606,"x_min":67,"x_max":558,"o":"m 67 317 q 143 553 67 457 q 339 650 219 650 q 490 594 433 650 q 547 468 547 538 q 525 401 547 425 q 471 376 503 376 q 424 394 443 376 q 406 438 406 413 q 453 501 406 486 q 475 526 475 508 q 440 585 475 554 q 339 617 406 617 q 220 542 251 617 q 189 317 189 467 q 219 92 189 167 q 339 17 250 17 q 469 76 424 17 q 525 217 515 136 l 558 217 q 496 56 553 129 q 347 -17 439 -17 l 331 -17 l 313 -74 l 346 -81 q 435 -122 403 -93 q 467 -197 467 -150 q 426 -267 467 -239 q 308 -294 386 -294 q 242 -279 276 -294 q 189 -244 208 -264 l 206 -222 q 242 -245 221 -235 q 292 -256 264 -256 q 353 -238 329 -256 q 378 -185 378 -221 q 364 -131 378 -147 q 317 -106 349 -112 l 269 -96 l 297 -12 q 129 97 192 4 q 67 317 67 189 z "},"è":{"ha":639,"x_min":67,"x_max":572,"o":"m 172 950 q 240 906 208 950 l 368 721 l 350 706 l 172 846 q 133 907 133 875 q 172 950 133 950 m 189 350 l 453 350 q 446 444 453 400 q 425 529 439 489 q 385 593 411 569 q 322 617 358 617 q 260 593 286 617 q 218 529 233 569 q 196 444 203 489 q 189 350 189 399 m 67 317 q 99 478 67 403 q 191 601 131 553 q 328 650 251 650 q 419 629 378 650 q 489 574 461 608 q 536 494 517 539 q 564 404 556 450 q 572 311 572 358 l 189 311 q 196 192 189 243 q 219 101 203 142 q 268 38 236 60 q 347 17 300 17 q 401 25 375 17 q 453 54 426 33 q 499 117 481 75 q 525 217 518 158 l 558 217 q 496 49 550 114 q 344 -17 442 -17 q 143 76 219 -17 q 67 317 67 169 z "},"é":{"ha":639,"x_min":67,"x_max":572,"o":"m 494 950 q 533 907 533 950 q 494 846 533 875 l 317 706 l 299 721 l 426 906 q 494 950 458 950 m 189 350 l 453 350 q 446 444 453 400 q 425 529 439 489 q 385 593 411 569 q 322 617 358 617 q 260 593 286 617 q 218 529 233 569 q 196 444 203 489 q 189 350 189 399 m 67 317 q 99 478 67 403 q 191 601 131 553 q 328 650 251 650 q 419 629 378 650 q 489 574 461 608 q 536 494 517 539 q 564 404 556 450 q 572 311 572 358 l 189 311 q 196 192 189 243 q 219 101 203 142 q 268 38 236 60 q 347 17 300 17 q 401 25 375 17 q 453 54 426 33 q 499 117 481 75 q 525 217 518 158 l 558 217 q 496 49 550 114 q 344 -17 442 -17 q 143 76 219 -17 q 67 317 67 169 z "},"ê":{"ha":639,"x_min":67,"x_max":572,"o":"m 361 933 q 515 724 411 790 l 503 706 q 333 833 408 754 q 164 706 258 754 l 151 724 q 306 933 256 790 l 361 933 m 189 350 l 453 350 q 446 444 453 400 q 425 529 439 489 q 385 593 411 569 q 322 617 358 617 q 260 593 286 617 q 218 529 233 569 q 196 444 203 489 q 189 350 189 399 m 67 317 q 99 478 67 403 q 191 601 131 553 q 328 650 251 650 q 419 629 378 650 q 489 574 461 608 q 536 494 517 539 q 564 404 556 450 q 572 311 572 358 l 189 311 q 196 192 189 243 q 219 101 203 142 q 268 38 236 60 q 347 17 300 17 q 401 25 375 17 q 453 54 426 33 q 499 117 481 75 q 525 217 518 158 l 558 217 q 496 49 550 114 q 344 -17 442 -17 q 143 76 219 -17 q 67 317 67 169 z "},"ë":{"ha":639,"x_min":67,"x_max":572,"o":"m 464 900 q 515 879 494 900 q 536 828 536 858 q 515 776 536 797 q 464 756 494 756 q 413 776 433 756 q 392 828 392 797 q 413 879 392 858 q 464 900 433 900 m 203 900 q 254 879 233 900 q 275 828 275 858 q 254 776 275 797 q 203 756 233 756 q 151 776 172 756 q 131 828 131 797 q 151 879 131 858 q 203 900 172 900 m 189 350 l 453 350 q 446 444 453 400 q 425 529 439 489 q 385 593 411 569 q 322 617 358 617 q 260 593 286 617 q 218 529 233 569 q 196 444 203 489 q 189 350 189 399 m 67 317 q 99 478 67 403 q 191 601 131 553 q 328 650 251 650 q 419 629 378 650 q 489 574 461 608 q 536 494 517 539 q 564 404 556 450 q 572 311 572 358 l 189 311 q 196 192 189 243 q 219 101 203 142 q 268 38 236 60 q 347 17 300 17 q 401 25 375 17 q 453 54 426 33 q 499 117 481 75 q 525 217 518 158 l 558 217 q 496 49 550 114 q 344 -17 442 -17 q 143 76 219 -17 q 67 317 67 169 z "},"ì":{"ha":375,"x_min":-17,"x_max":331,"o":"m 22 950 q 90 906 58 950 l 218 721 l 200 706 l 22 846 q -17 907 -17 875 q 22 950 -17 950 m 53 0 l 53 33 l 111 33 q 142 64 142 33 l 142 569 q 111 600 142 600 l 53 600 l 53 633 l 242 633 l 242 64 q 272 33 242 33 l 331 33 l 331 0 l 53 0 z "},"í":{"ha":375,"x_min":53,"x_max":383,"o":"m 344 950 q 383 907 383 950 q 344 846 383 875 l 167 706 l 149 721 l 276 906 q 344 950 308 950 m 53 0 l 53 33 l 111 33 q 142 64 142 33 l 142 569 q 111 600 142 600 l 53 600 l 53 633 l 242 633 l 242 64 q 272 33 242 33 l 331 33 l 331 0 l 53 0 z "},"î":{"ha":392,"x_min":10,"x_max":374,"o":"m 219 933 q 374 724 269 790 l 361 706 q 192 833 267 754 q 22 706 117 754 l 10 724 q 164 933 114 790 l 219 933 m 61 0 l 61 33 l 119 33 q 150 64 150 33 l 150 569 q 119 600 150 600 l 61 600 l 61 633 l 250 633 l 250 64 q 281 33 250 33 l 339 33 l 339 0 l 61 0 z "},"ï":{"ha":392,"x_min":14,"x_max":383,"o":"m 69 0 l 69 33 l 128 33 q 158 64 158 33 l 158 569 q 128 600 158 600 l 69 600 l 69 633 l 258 633 l 258 64 q 289 33 258 33 l 347 33 l 347 0 l 69 0 m 239 828 q 260 879 239 858 q 311 900 281 900 q 363 879 342 900 q 383 828 383 858 q 363 776 383 797 q 311 756 342 756 q 260 776 281 756 q 239 828 239 797 m 14 828 q 35 879 14 858 q 86 900 56 900 q 138 879 117 900 q 158 828 158 858 q 138 776 158 797 q 86 756 117 756 q 35 776 56 756 q 14 828 14 797 z "},"ð":{"ha":694,"x_min":67,"x_max":622,"o":"m 344 17 q 500 317 500 17 q 344 617 500 617 q 189 317 189 617 q 344 17 189 17 m 344 -17 q 147 81 228 -17 q 67 317 67 179 q 147 552 67 454 q 344 650 228 650 q 432 633 389 650 l 436 639 q 319 806 404 699 l 169 713 l 149 744 l 293 835 q 150 989 231 914 l 283 989 q 376 886 319 957 l 526 981 l 547 949 l 401 857 q 494 729 450 797 q 622 358 622 531 q 542 83 622 182 q 344 -17 463 -17 z "},"ñ":{"ha":750,"x_min":53,"x_max":706,"o":"m 464 772 q 363 800 419 772 q 272 828 306 828 q 222 772 232 828 l 192 772 q 221 865 192 826 q 303 903 250 903 q 404 875 347 903 q 494 847 461 847 q 544 903 535 847 l 575 903 q 546 810 575 849 q 464 772 517 772 m 53 0 l 53 33 l 111 33 q 142 64 142 33 l 142 569 q 111 600 142 600 l 53 600 l 53 633 l 242 633 l 242 506 l 247 504 q 334 612 283 574 q 440 650 385 650 q 553 614 510 650 q 617 443 617 563 l 617 64 q 647 33 617 33 l 706 33 l 706 0 l 428 0 l 428 33 l 486 33 q 517 64 517 33 l 517 471 q 428 617 517 617 q 303 537 365 617 q 242 353 242 457 l 242 64 q 272 33 242 33 l 331 33 l 331 0 l 53 0 z "},"ò":{"ha":689,"x_min":67,"x_max":622,"o":"m 183 950 q 251 906 219 950 l 379 721 l 361 706 l 183 846 q 144 907 144 875 q 183 950 144 950 m 344 17 q 500 317 500 17 q 344 617 500 617 q 189 317 189 617 q 344 17 189 17 m 344 -17 q 147 81 228 -17 q 67 317 67 179 q 147 552 67 454 q 344 650 228 650 q 542 552 461 650 q 622 317 622 454 q 542 81 622 179 q 344 -17 461 -17 z "},"ó":{"ha":689,"x_min":67,"x_max":622,"o":"m 506 950 q 544 907 544 950 q 506 846 544 875 l 328 706 l 310 721 l 438 906 q 506 950 469 950 m 344 17 q 500 317 500 17 q 344 617 500 617 q 189 317 189 617 q 344 17 189 17 m 344 -17 q 147 81 228 -17 q 67 317 67 179 q 147 552 67 454 q 344 650 228 650 q 542 552 461 650 q 622 317 622 454 q 542 81 622 179 q 344 -17 461 -17 z "},"ô":{"ha":689,"x_min":67,"x_max":622,"o":"m 372 933 q 526 724 422 790 l 514 706 q 344 833 419 754 q 175 706 269 754 l 163 724 q 317 933 267 790 l 372 933 m 344 17 q 500 317 500 17 q 344 617 500 617 q 189 317 189 617 q 344 17 189 17 m 344 -17 q 147 81 228 -17 q 67 317 67 179 q 147 552 67 454 q 344 650 228 650 q 542 552 461 650 q 622 317 622 454 q 542 81 622 179 q 344 -17 461 -17 z "},"õ":{"ha":689,"x_min":67,"x_max":622,"o":"m 425 772 q 324 800 381 772 q 233 828 267 828 q 183 772 193 828 l 153 772 q 182 865 153 826 q 264 903 211 903 q 365 875 308 903 q 456 847 422 847 q 506 903 496 847 l 536 903 q 507 810 536 849 q 425 772 478 772 m 344 17 q 500 317 500 17 q 344 617 500 617 q 189 317 189 617 q 344 17 189 17 m 344 -17 q 147 81 228 -17 q 67 317 67 179 q 147 552 67 454 q 344 650 228 650 q 542 552 461 650 q 622 317 622 454 q 542 81 622 179 q 344 -17 461 -17 z "},"ö":{"ha":689,"x_min":67,"x_max":622,"o":"m 475 900 q 526 879 506 900 q 547 828 547 858 q 526 776 547 797 q 475 756 506 756 q 424 776 444 756 q 403 828 403 797 q 424 879 403 858 q 475 900 444 900 m 214 900 q 265 879 244 900 q 286 828 286 858 q 265 776 286 797 q 214 756 244 756 q 163 776 183 756 q 142 828 142 797 q 163 879 142 858 q 214 900 183 900 m 344 17 q 500 317 500 17 q 344 617 500 617 q 189 317 189 617 q 344 17 189 17 m 344 -17 q 147 81 228 -17 q 67 317 67 179 q 147 552 67 454 q 344 650 228 650 q 542 552 461 650 q 622 317 622 454 q 542 81 622 179 q 344 -17 461 -17 z "},"÷":{"ha":1306,"x_min":67,"x_max":1239,"o":"m 67 339 l 67 394 l 1239 394 l 1239 339 l 67 339 m 653 -78 q 591 -53 615 -78 q 567 8 567 -29 q 591 70 567 46 q 653 94 615 94 q 715 70 690 94 q 739 8 739 46 q 715 -53 739 -29 q 653 -78 690 -78 m 653 633 q 591 658 615 633 q 567 719 567 682 q 591 781 567 757 q 653 806 615 806 q 715 781 690 806 q 739 719 739 757 q 715 658 739 682 q 653 633 690 633 z "},"ø":{"ha":689,"x_min":67,"x_max":622,"o":"m 344 -17 q 163 64 239 -17 l 97 -17 l 67 8 l 138 94 q 67 317 67 189 q 147 552 67 454 q 344 650 228 650 q 526 569 450 650 l 592 650 l 622 625 l 551 539 q 622 317 622 444 q 542 81 622 179 q 344 -17 461 -17 m 344 17 q 500 317 500 17 q 488 461 500 400 l 214 125 q 344 17 251 17 m 344 617 q 189 317 189 617 q 201 172 189 233 l 475 508 q 344 617 438 617 z "},"ù":{"ha":742,"x_min":44,"x_max":697,"o":"m 203 950 q 271 906 239 950 l 399 721 l 381 706 l 203 846 q 164 907 164 875 q 203 950 164 950 m 310 -17 q 197 19 240 -17 q 133 190 133 71 l 133 569 q 103 600 133 600 l 44 600 l 44 633 l 233 633 l 233 163 q 322 17 233 17 q 447 97 385 17 q 508 281 508 176 l 508 569 q 478 600 508 600 l 419 600 l 419 633 l 608 633 l 608 64 q 639 33 608 33 l 697 33 l 697 0 l 508 0 l 508 128 l 503 129 q 416 22 467 60 q 310 -17 365 -17 z "},"ú":{"ha":742,"x_min":44,"x_max":697,"o":"m 525 950 q 564 907 564 950 q 525 846 564 875 l 347 706 l 329 721 l 457 906 q 525 950 489 950 m 310 -17 q 197 19 240 -17 q 133 190 133 71 l 133 569 q 103 600 133 600 l 44 600 l 44 633 l 233 633 l 233 163 q 322 17 233 17 q 447 97 385 17 q 508 281 508 176 l 508 569 q 478 600 508 600 l 419 600 l 419 633 l 608 633 l 608 64 q 639 33 608 33 l 697 33 l 697 0 l 508 0 l 508 128 l 503 129 q 416 22 467 60 q 310 -17 365 -17 z "},"û":{"ha":742,"x_min":44,"x_max":697,"o":"m 392 933 q 546 724 442 790 l 533 706 q 364 833 439 754 q 194 706 289 754 l 182 724 q 336 933 286 790 l 392 933 m 310 -17 q 197 19 240 -17 q 133 190 133 71 l 133 569 q 103 600 133 600 l 44 600 l 44 633 l 233 633 l 233 163 q 322 17 233 17 q 447 97 385 17 q 508 281 508 176 l 508 569 q 478 600 508 600 l 419 600 l 419 633 l 608 633 l 608 64 q 639 33 608 33 l 697 33 l 697 0 l 508 0 l 508 128 l 503 129 q 416 22 467 60 q 310 -17 365 -17 z "},"ü":{"ha":742,"x_min":44,"x_max":697,"o":"m 494 900 q 546 879 525 900 q 567 828 567 858 q 546 776 567 797 q 494 756 525 756 q 443 776 464 756 q 422 828 422 797 q 443 879 422 858 q 494 900 464 900 m 233 900 q 285 879 264 900 q 306 828 306 858 q 285 776 306 797 q 233 756 264 756 q 182 776 203 756 q 161 828 161 797 q 182 879 161 858 q 233 900 203 900 m 310 -17 q 197 19 240 -17 q 133 190 133 71 l 133 569 q 103 600 133 600 l 44 600 l 44 633 l 233 633 l 233 163 q 322 17 233 17 q 447 97 385 17 q 508 281 508 176 l 508 569 q 478 600 508 600 l 419 600 l 419 633 l 608 633 l 608 64 q 639 33 608 33 l 697 33 l 697 0 l 508 0 l 508 128 l 503 129 q 416 22 467 60 q 310 -17 365 -17 z "},"ý":{"ha":736,"x_min":25,"x_max":703,"o":"m 544 950 q 583 907 583 950 q 544 846 583 875 l 367 706 l 349 721 l 476 906 q 544 950 508 950 m 186 -331 q 97 -296 132 -331 q 58 -208 58 -260 q 81 -150 58 -169 q 128 -129 101 -129 q 176 -149 160 -129 q 192 -200 192 -169 q 181 -239 192 -217 q 172 -265 172 -253 q 200 -286 172 -286 q 270 -253 242 -286 q 313 -176 299 -221 l 350 -56 l 153 518 q 134 563 142 549 q 110 589 126 578 q 71 600 94 600 l 25 600 l 25 633 l 339 633 l 339 600 l 294 600 q 264 591 278 600 q 250 567 250 582 q 258 521 250 543 l 403 94 l 518 475 q 533 546 533 518 q 519 585 533 569 q 483 600 506 600 l 450 600 l 450 633 l 703 633 l 703 600 l 671 600 q 575 518 603 600 l 351 -193 q 293 -287 336 -244 q 186 -331 250 -331 z "},"þ":{"ha":694,"x_min":36,"x_max":628,"o":"m 506 464 q 419 589 506 589 q 297 503 357 589 q 236 322 236 417 l 236 38 q 361 122 308 74 q 467 276 429 186 q 506 464 506 367 m 50 -350 l 36 -317 l 108 -286 q 136 -247 136 -274 l 136 844 q 114 869 136 869 q 92 864 104 869 l 50 849 l 36 882 l 197 950 l 236 950 l 236 489 l 244 486 q 344 606 283 563 q 467 650 406 650 q 579 610 531 650 q 628 485 628 569 q 567 290 628 390 q 408 108 506 190 q 236 0 331 43 l 236 -276 l 50 -350 z "},"ÿ":{"ha":736,"x_min":25,"x_max":703,"o":"m 514 900 q 565 879 544 900 q 586 828 586 858 q 565 776 586 797 q 514 756 544 756 q 463 776 483 756 q 442 828 442 797 q 463 879 442 858 q 514 900 483 900 m 253 900 q 304 879 283 900 q 325 828 325 858 q 304 776 325 797 q 253 756 283 756 q 201 776 222 756 q 181 828 181 797 q 201 879 181 858 q 253 900 222 900 m 186 -331 q 97 -296 132 -331 q 58 -208 58 -260 q 81 -150 58 -169 q 128 -129 101 -129 q 176 -149 160 -129 q 192 -200 192 -169 q 181 -239 192 -217 q 172 -265 172 -253 q 200 -286 172 -286 q 270 -253 242 -286 q 313 -176 299 -221 l 350 -56 l 153 518 q 134 563 142 549 q 110 589 126 578 q 71 600 94 600 l 25 600 l 25 633 l 339 633 l 339 600 l 294 600 q 264 591 278 600 q 250 567 250 582 q 258 521 250 543 l 403 94 l 518 475 q 533 546 533 518 q 519 585 533 569 q 483 600 506 600 l 450 600 l 450 633 l 703 633 l 703 600 l 671 600 q 575 518 603 600 l 351 -193 q 293 -287 336 -244 q 186 -331 250 -331 z "},"ı":{"ha":375,"x_min":53,"x_max":331,"o":"m 53 0 l 53 33 l 111 33 q 142 64 142 33 l 142 569 q 111 600 142 600 l 53 600 l 53 633 l 242 633 l 242 64 q 272 33 242 33 l 331 33 l 331 0 l 53 0 z "},"ʀ":{"ha":717,"x_min":53,"x_max":683,"o":"m 242 350 l 349 350 q 422 382 394 350 q 450 472 450 414 q 347 600 450 600 l 272 600 q 242 569 242 600 l 242 350 m 53 0 l 53 33 l 111 33 q 142 64 142 33 l 142 569 q 111 600 142 600 l 53 600 l 53 633 l 369 633 q 515 594 457 633 q 572 481 572 554 q 555 413 572 442 q 510 367 538 383 q 463 344 483 351 q 422 333 442 338 l 422 328 q 549 168 535 304 q 554 104 553 135 q 567 53 556 74 q 600 33 578 33 q 646 74 633 33 q 658 158 658 115 l 683 158 q 679 107 683 132 q 665 51 675 82 q 628 2 654 21 q 565 -17 603 -17 q 494 3 522 -17 q 443 124 443 39 l 443 199 q 415 290 443 264 q 350 317 386 317 l 242 317 l 242 64 q 272 33 242 33 l 333 33 l 333 0 l 53 0 z "},"ˆ":{"ha":611,"x_min":124,"x_max":488,"o":"m 333 933 q 488 724 383 790 l 475 706 q 306 833 381 754 q 136 706 231 754 l 124 724 q 278 933 228 790 l 333 933 z "},"˙":{"ha":611,"x_min":233,"x_max":378,"o":"m 306 756 q 254 776 275 756 q 233 828 233 797 q 254 879 233 858 q 306 900 275 900 q 357 879 336 900 q 378 828 378 858 q 357 776 378 797 q 306 756 336 756 z "},"˚":{"ha":611,"x_min":171,"x_max":440,"o":"m 306 694 q 210 734 250 694 q 171 831 171 774 q 210 925 171 886 q 306 964 249 964 q 401 925 363 964 q 440 831 440 886 q 401 734 440 774 q 306 694 361 694 m 306 728 q 378 757 349 728 q 407 831 407 786 q 378 902 407 874 q 306 931 350 931 q 233 902 261 931 q 204 831 204 874 q 233 757 204 786 q 306 728 263 728 z "},"˜":{"ha":611,"x_min":114,"x_max":497,"o":"m 386 772 q 285 800 342 772 q 194 828 228 828 q 144 772 154 828 l 114 772 q 143 865 114 826 q 225 903 172 903 q 326 875 269 903 q 417 847 383 847 q 467 903 457 847 l 497 903 q 468 810 497 849 q 386 772 439 772 z "},"μ":{"ha":842,"x_min":86,"x_max":803,"o":"m 86 492 q 158 644 86 644 q 219 522 219 644 q 182 267 219 475 q 167 174 169 203 q 227 83 181 118 q 338 47 274 47 q 410 60 378 47 q 461 90 442 72 q 493 131 481 108 q 510 170 506 153 q 514 200 514 188 q 501 319 514 236 q 486 494 486 422 q 558 647 486 647 q 617 603 597 647 q 636 483 636 558 q 618 299 636 411 q 576 124 600 188 q 618 85 592 99 q 671 72 644 72 q 739 99 714 72 q 772 163 764 126 q 803 86 803 125 q 779 13 803 42 q 713 -17 756 -17 q 569 93 625 -17 l 560 92 q 487 18 535 50 q 367 -14 439 -14 q 236 26 292 -14 q 151 124 181 67 q 144 42 144 81 q 159 -125 144 -67 q 203 -240 174 -183 q 233 -328 233 -300 q 218 -375 233 -358 q 178 -392 203 -392 q 129 -368 150 -392 q 100 -314 108 -344 q 92 -254 92 -283 q 108 -15 92 -171 q 122 183 122 114 q 97 313 108 228 q 86 492 86 397 z "},"–":{"ha":861,"x_min":83,"x_max":778,"o":"m 83 339 l 83 389 l 778 389 l 778 339 l 83 339 z "},"—":{"ha":1389,"x_min":83,"x_max":1306,"o":"m 83 325 l 83 375 l 1306 375 l 1306 325 l 83 325 z "},"‘":{"ha":389,"x_min":97,"x_max":289,"o":"m 289 667 q 264 608 289 629 q 208 586 239 586 q 124 631 154 586 q 97 729 97 667 q 140 892 97 815 q 244 1014 183 969 l 264 992 q 180 897 213 953 q 147 786 147 842 q 172 744 147 758 q 219 739 181 739 q 269 717 250 739 q 289 667 289 696 z "},"’":{"ha":389,"x_min":100,"x_max":292,"o":"m 100 933 q 125 992 100 971 q 181 1014 150 1014 q 265 969 235 1014 q 292 871 292 933 q 249 708 292 785 q 144 586 206 631 l 125 608 q 209 703 176 647 q 242 814 242 758 q 217 856 242 842 q 169 861 208 861 q 119 883 139 861 q 100 933 100 904 z "},"‚":{"ha":389,"x_min":100,"x_max":292,"o":"m 100 114 q 125 173 100 151 q 181 194 150 194 q 265 150 235 194 q 292 51 292 114 q 249 -112 292 -35 q 144 -233 206 -189 l 125 -211 q 209 -117 176 -172 q 242 -6 242 -61 q 217 36 242 22 q 169 42 208 42 q 119 63 139 42 q 100 114 100 85 z "},"“":{"ha":647,"x_min":97,"x_max":547,"o":"m 547 667 q 522 608 547 629 q 467 586 497 586 q 382 631 413 586 q 356 729 356 667 q 399 892 356 815 q 503 1014 442 969 l 522 992 q 438 897 471 953 q 406 786 406 842 q 431 744 406 758 q 478 739 439 739 q 528 717 508 739 q 547 667 547 696 m 289 667 q 264 608 289 629 q 208 586 239 586 q 124 631 154 586 q 97 729 97 667 q 140 892 97 815 q 244 1014 183 969 l 264 992 q 180 897 213 953 q 147 786 147 842 q 172 744 147 758 q 219 739 181 739 q 269 717 250 739 q 289 667 289 696 z "},"”":{"ha":647,"x_min":100,"x_max":550,"o":"m 358 933 q 383 992 358 971 q 439 1014 408 1014 q 524 969 493 1014 q 550 871 550 933 q 507 708 550 785 q 403 586 464 631 l 383 608 q 467 703 435 647 q 500 814 500 758 q 475 856 500 842 q 428 861 467 861 q 378 883 397 861 q 358 933 358 904 m 100 933 q 125 992 100 971 q 181 1014 150 1014 q 265 969 235 1014 q 292 871 292 933 q 249 708 292 785 q 144 586 206 631 l 125 608 q 209 703 176 647 q 242 814 242 758 q 217 856 242 842 q 169 861 208 861 q 119 883 139 861 q 100 933 100 904 z "},"„":{"ha":647,"x_min":100,"x_max":550,"o":"m 358 114 q 383 173 358 151 q 439 194 408 194 q 524 150 493 194 q 550 51 550 114 q 507 -112 550 -35 q 403 -233 464 -189 l 383 -211 q 467 -117 435 -172 q 500 -6 500 -61 q 475 36 500 22 q 428 42 467 42 q 378 63 397 42 q 358 114 358 85 m 100 114 q 125 173 100 151 q 181 194 150 194 q 265 150 235 194 q 292 51 292 114 q 249 -112 292 -35 q 144 -233 206 -189 l 125 -211 q 209 -117 176 -172 q 242 -6 242 -61 q 217 36 242 22 q 169 42 208 42 q 119 63 139 42 q 100 114 100 85 z "},"•":{"ha":694,"x_min":189,"x_max":506,"o":"m 347 333 q 235 379 281 333 q 189 492 189 425 q 235 604 189 558 q 347 650 281 650 q 460 604 414 650 q 506 492 506 558 q 460 379 506 425 q 347 333 414 333 z "},"‹":{"ha":458,"x_min":150,"x_max":332,"o":"m 150 317 q 199 481 150 407 q 311 594 249 554 l 332 574 q 228 317 228 481 q 332 60 228 153 l 311 39 q 199 153 249 79 q 150 317 150 226 z "},"›":{"ha":458,"x_min":126,"x_max":308,"o":"m 308 317 q 259 153 308 226 q 147 39 210 79 l 126 60 q 231 317 231 153 q 126 574 231 481 l 147 594 q 259 481 210 554 q 308 317 308 407 z "},"⁴":{"ha":611,"x_min":103,"x_max":506,"o":"m 317 874 l 142 592 l 317 592 l 317 874 m 217 386 l 217 419 l 293 419 q 317 440 317 419 l 317 553 l 103 553 l 103 592 l 333 958 l 406 958 l 406 592 l 506 592 l 506 553 l 406 553 l 406 440 q 429 419 406 419 l 506 419 l 506 386 l 217 386 z "},"−":{"ha":1306,"x_min":67,"x_max":1239,"o":"m 67 339 l 67 394 l 1239 394 l 1239 339 l 67 339 z "},"∕":{"ha":775,"x_min":67,"x_max":708,"o":"m 117 -25 l 67 -25 l 658 975 l 708 975 l 117 -25 z "},"○":{"ha":1139,"x_min":67,"x_max":1072,"o":"m 106 494 q 240 156 106 297 q 569 14 375 14 q 899 156 764 14 q 1033 494 1033 297 q 899 833 1033 692 q 569 975 764 975 q 240 833 375 975 q 106 494 106 692 m 67 494 q 212 863 67 711 q 569 1014 357 1014 q 927 863 782 1014 q 1072 494 1072 711 q 927 126 1072 278 q 569 -25 782 -25 q 212 126 357 -25 q 67 494 67 278 z "},"":{"ha":611,"x_min":171,"x_max":440,"o":"m 306 1047 q 210 1087 250 1047 q 171 1183 171 1126 q 210 1278 171 1239 q 306 1317 249 1317 q 401 1278 363 1317 q 440 1183 440 1239 q 401 1087 440 1126 q 306 1047 361 1047 m 306 1081 q 378 1110 349 1081 q 407 1183 407 1139 q 378 1255 407 1226 q 306 1283 350 1283 q 233 1255 261 1283 q 204 1183 204 1226 q 233 1110 204 1139 q 306 1081 263 1081 z "},"":{"ha":611,"x_min":103,"x_max":519,"o":"m 408 1125 q 290 1153 364 1125 q 183 1181 217 1181 q 133 1125 143 1181 l 103 1125 q 132 1217 103 1179 q 214 1256 161 1256 q 332 1228 258 1256 q 439 1200 406 1200 q 489 1256 479 1200 l 519 1256 q 490 1163 519 1201 q 408 1125 461 1125 z "},"":{"ha":611,"x_min":86,"x_max":525,"o":"m 333 1278 q 525 1081 399 1153 l 511 1058 q 412 1112 475 1071 q 306 1192 349 1153 q 199 1112 263 1153 q 100 1058 136 1071 l 86 1081 q 278 1278 213 1153 l 333 1278 z "},"":{"ha":611,"x_min":271,"x_max":506,"o":"m 467 1303 q 506 1260 506 1303 q 467 1199 506 1228 l 289 1058 l 271 1074 l 399 1258 q 467 1303 431 1303 z "},"":{"ha":611,"x_min":92,"x_max":519,"o":"m 447 1253 q 499 1232 478 1253 q 519 1181 519 1211 q 499 1129 519 1150 q 447 1108 478 1108 q 396 1129 417 1108 q 375 1181 375 1150 q 396 1232 375 1211 q 447 1253 417 1253 m 164 1253 q 215 1232 194 1253 q 236 1181 236 1211 q 215 1129 236 1150 q 164 1108 194 1108 q 113 1129 133 1108 q 92 1181 92 1150 q 113 1232 92 1211 q 164 1253 133 1253 z "},"":{"ha":611,"x_min":106,"x_max":340,"o":"m 144 1303 q 213 1258 181 1303 l 340 1074 l 322 1058 l 144 1199 q 106 1260 106 1228 q 144 1303 106 1303 z "}}}
